<?xml version="1.0" encoding="UTF-8"?>
<svg version="1.1" xmlns="http://www.w3.org/2000/svg" width="1080" height="1080">
<path d="M0 0 C356.4 0 712.8 0 1080 0 C1080 356.4 1080 712.8 1080 1080 C723.6 1080 367.2 1080 0 1080 C0 723.6 0 367.2 0 0 Z " fill="#0E0E41" transform="translate(0,0)"/>
<path d="M0 0 C13.96139145 11.95226316 25.46331533 28.36088218 28 47 C29.62078705 71.59204881 24.00927352 93.00618138 7.875 112.125 C-6.48055382 127.42627443 -26.21719672 135.55108331 -46.95532227 136.45117188 C-66.42913468 136.84414559 -85.74127641 129.31755372 -100 116 C-114.11775477 102.40032797 -123.54708488 84.49205744 -124.23828125 64.65625 C-124.64441022 42.33184816 -119.5662754 23.655628 -104 7 C-75.57019142 -21.71458128 -32.0200032 -25.12088971 0 0 Z " fill="#111143" transform="translate(315,485)"/>
<path d="M0 0 C3.84887506 1.57794528 6.46159119 4.17312899 9.34712219 7.07296753 C10.13734914 7.85533946 10.13734914 7.85533946 10.94354028 8.65351689 C12.70714058 10.40211779 14.4635212 12.15779268 16.2199707 13.91357422 C17.48285899 15.16884131 18.74614922 16.42370412 20.0098114 17.67819214 C23.4400232 21.08645584 26.86363638 24.50127346 30.28543115 27.91798544 C32.42185871 30.05077164 34.55957907 32.18225328 36.69774437 34.31329727 C44.15195854 41.74302173 51.60043889 49.17844516 59.04418945 56.61865234 C65.99204995 63.56287172 72.95294884 70.49383258 79.91986781 77.41892612 C85.89560577 83.36003795 91.86175219 89.31066802 97.82055157 95.26876843 C101.38211601 98.82953782 104.94759263 102.38617051 108.52291298 105.93313217 C111.8819398 109.26610806 115.22893851 112.61069922 118.56689644 115.96477127 C119.79654873 117.19624806 121.0305198 118.42342913 122.26898575 119.64604187 C123.9536729 121.31046357 125.62237057 122.9894033 127.28779602 124.67306519 C127.78602176 125.15809096 128.28424751 125.64311674 128.797571 126.14284027 C130.13519764 127.51437187 130.13519764 127.51437187 132 130 C131.87496427 134.32248669 128.6434502 136.7722126 125.72265625 139.640625 C125.19610947 140.16767029 124.66956268 140.69471558 124.12705994 141.23773193 C123.01513644 142.34731917 121.89952865 143.45322498 120.78051758 144.55566406 C119.06344507 146.24906795 117.36015619 147.95547749 115.65820312 149.6640625 C114.57631205 150.74037924 113.49365563 151.81592732 112.41015625 152.890625 C111.89864517 153.40304749 111.38713409 153.91546997 110.86012268 154.44342041 C107.23104034 158 107.23104034 158 105 158 C104.74347656 158.59554687 104.48695313 159.19109375 104.22265625 159.8046875 C102.89030313 162.19696371 101.56631395 163.42728199 99.4375 165.125 C96.78974334 167.20903634 96.78974334 167.20903634 95 170 C94.34 170 93.68 170 93 170 C92.6455481 170.84232178 92.6455481 170.84232178 92.28393555 171.70166016 C90.6994033 174.53809038 88.76064473 176.48130046 86.45703125 178.7734375 C85.54759766 179.6809375 84.63816406 180.5884375 83.70117188 181.5234375 C82.98852173 182.22678223 82.98852173 182.22678223 82.26147461 182.94433594 C80.82940613 184.35830751 79.40534415 185.77995599 77.98242188 187.203125 C73.13915727 192.01571446 68.21500654 196.59682825 63 201 C61.63360658 202.6396721 60.29486821 204.30327614 59 206 C56.875 208.3125 56.875 208.3125 55 210 C54.34 210 53.68 210 53 210 C53 210.66 53 211.32 53 212 C51.390625 213.55078125 51.390625 213.55078125 49.25 215.3125 C46.08125295 217.99674618 43.56485276 220.72760165 41 224 C39.33333333 225.33333333 37.66666667 226.66666667 36 228 C35.34 228.825 34.68 229.65 34 230.5 C31.89680365 233.12899543 29.62100457 234.90319635 27 237 C26.401875 237.763125 25.80375 238.52625 25.1875 239.3125 C22.70259414 242.36538435 19.93655684 244.75219582 16.953125 247.3046875 C14.51254677 249.4231094 12.25392284 251.68516033 10 254 C9.13375 254.845625 8.2675 255.69125 7.375 256.5625 C5.36916527 258.62111985 3.65035311 260.65476137 2 263 C-2.24674404 262.52423983 -4.5257745 259.88583206 -7.37835693 256.98240662 C-7.90855289 256.45477394 -8.43874884 255.92714126 -8.98501134 255.38351971 C-10.76251707 253.61096145 -12.52907772 251.82788193 -14.29589844 250.04467773 C-15.56676391 248.7729662 -16.83829004 247.50191459 -18.11042786 246.23147583 C-21.56517818 242.77758769 -25.01058851 239.31451521 -28.45442867 235.84975314 C-32.05388307 232.23156932 -35.66181144 228.62185607 -39.26885986 225.01124573 C-46.09940982 218.17136434 -52.92227523 211.32387021 -59.74243093 204.4736262 C-67.50671757 196.67582977 -75.27950499 188.88653071 -83.05302763 181.09794319 C-99.04484652 165.07475039 -115.02592953 149.04088548 -131 133 C-129.41888078 129.12489392 -126.78812864 126.51326044 -123.8621521 123.62164307 C-123.06942144 122.82634914 -123.06942144 122.82634914 -122.26067603 122.01498866 C-120.48888669 120.23990551 -118.71004456 118.4720644 -116.93115234 116.70410156 C-115.65950799 115.43302135 -114.38830386 114.16150059 -113.11750793 112.88957214 C-109.66558931 109.4370791 -106.20753374 105.99079233 -102.7483592 102.54557133 C-99.13462922 98.94433381 -95.52655258 95.3374414 -91.9178772 91.73114014 C-85.08311978 84.90260184 -78.24327955 78.07917831 -71.40160716 71.25756907 C-63.61300594 63.49131338 -55.83007497 55.71938594 -48.04761958 47.94697237 C-32.03805616 31.95832075 -16.02137062 15.97681962 0 0 Z M-4.87882996 13.60467529 C-5.37943776 14.10004642 -5.88004556 14.59541754 -6.3958233 15.10579991 C-8.0827589 16.77765675 -9.76239354 18.45666328 -11.44213867 20.13574219 C-12.64561694 21.33160433 -13.84949919 22.52706004 -15.05375671 23.72213745 C-18.33122744 26.97760389 -21.60204633 30.23967535 -24.87106872 33.50362301 C-26.91133249 35.54025056 -28.95289002 37.57557195 -30.99489784 39.61045074 C-38.11195462 46.70299358 -45.22325456 53.80125662 -52.32983398 60.90429688 C-58.96523307 67.53605795 -65.61365251 74.1545677 -72.26812571 80.76718402 C-77.97206566 86.43649367 -83.6664082 92.11532392 -89.35340863 97.80162549 C-92.75403798 101.20145961 -96.15857762 104.59714833 -99.57295799 107.98317719 C-102.78258294 111.16674553 -105.98016287 114.36192678 -109.16871834 117.56659317 C-110.34354228 118.74324144 -111.52268466 119.91559542 -112.70632172 121.08337784 C-114.31668567 122.6734716 -115.9110202 124.2780556 -117.50212097 125.88739014 C-118.40011508 126.78337292 -119.29810919 127.6793557 -120.22331524 128.60248947 C-122.24359288 130.797348 -122.24359288 130.797348 -121.88652515 133.19284439 C-120.67910017 135.65414492 -119.10006377 137.2358365 -117.140625 139.15234375 C-116.35429687 139.92900391 -115.56796875 140.70566406 -114.7578125 141.50585938 C-113.93023437 142.30830078 -113.10265625 143.11074219 -112.25 143.9375 C-111.43789062 144.73607422 -110.62578125 145.53464844 -109.7890625 146.35742188 C-108.21905083 147.90058481 -106.64623738 149.44090364 -105.0703125 150.97802734 C-102.69344186 153.2994003 -100.34283477 155.64433949 -98 158 C-97.3915625 158.6084375 -96.783125 159.216875 -96.15625 159.84375 C-81 175 -81 175 -78.5 177.5625 C-76.07084467 180.02015888 -76.07084467 180.02015888 -73.4375 182 C-70.85886826 184.1158004 -69.03854402 186.36962062 -67 189 C-64.97959252 191.27191416 -64.97959252 191.27191416 -63 193 C-62.34 193 -61.68 193 -61 193 C-60.79375 193.556875 -60.5875 194.11375 -60.375 194.6875 C-58.81532054 197.31059728 -56.87868674 198.84181506 -54.50390625 200.71875 C-53 202 -53 202 -51.0625 204.4375 C-48.84590709 207.19144877 -46.4409319 209.26640591 -43.73828125 211.5234375 C-40.59464716 214.19376039 -37.74493363 216.97916503 -35.3125 220.3125 C-34.879375 220.869375 -34.44625 221.42625 -34 222 C-33.34 222 -32.68 222 -32 222 C-31.67 222.99 -31.34 223.98 -31 225 C-29.53764938 226.48629143 -29.53764938 226.48629143 -27.75 227.875 C-25.19708897 229.94218017 -22.83753205 232.11325947 -20.53027344 234.45214844 C-18.64318697 236.36091171 -16.73538522 238.24811559 -14.828125 240.13671875 C-13.30202824 241.6535904 -11.77598787 243.1705188 -10.25 244.6875 C-9.47011719 245.45900391 -8.69023437 246.23050781 -7.88671875 247.02539062 C-7.14550781 247.76337891 -6.40429688 248.50136719 -5.640625 249.26171875 C-4.96547852 249.93162842 -4.29033203 250.60153809 -3.59472656 251.29174805 C-2 253 -2 253 -1 255 C2.7871201 253.42759979 5.19096054 251.06055972 8.074646 248.17932129 C8.57217353 247.68491374 9.06970107 247.19050618 9.58230519 246.68111658 C11.24683313 245.02456086 12.90412698 243.36095416 14.56152344 241.69726562 C15.7538021 240.50769709 16.94650581 239.31855444 18.13960266 238.12980652 C21.37743136 234.90109943 24.60889715 231.6660932 27.83899593 228.42965508 C31.21659804 225.04699419 34.59907161 221.66921029 37.98077393 218.29064941 C43.65696569 212.61809665 49.32892605 206.94133851 54.99853516 201.26220703 C61.56135551 194.68849179 68.13136415 188.12202686 74.7051332 181.5592618 C80.34366679 175.92979048 85.97831059 170.29644809 91.60969377 164.65982389 C94.97557822 161.29081524 98.34281401 157.92318713 101.71355438 154.55903625 C104.87976104 151.39858738 108.04107243 148.23332364 111.19859886 145.06420326 C112.36111978 143.89902779 113.52536459 142.73556949 114.69140816 141.5739193 C116.27668738 139.99406541 117.85573967 138.40824603 119.43328857 136.82067871 C120.76393908 135.48889713 120.76393908 135.48889713 122.12147141 134.13021088 C124.22046998 132.22335647 124.22046998 132.22335647 124 130 C122.5952479 128.57632754 122.5952479 128.57632754 120.70883179 127.07872009 C115.05877876 122.26844552 109.88387235 117.00008954 104.65869141 111.74047852 C103.53785097 110.6160753 102.41677082 109.491911 101.29547119 108.3679657 C98.89656737 105.9625505 96.49918366 103.55563437 94.10295486 101.1475544 C90.31601521 97.34223155 86.52465159 93.54133712 82.73251343 89.74119568 C71.95543203 78.94002497 61.1843737 68.13285938 50.41748047 57.3215332 C44.45950728 51.33905067 38.4979758 45.3601371 32.5325712 39.38506454 C28.7590027 35.6049427 24.98999048 31.82035302 21.22425389 28.03242981 C18.8892066 25.6856943 16.55002941 23.3431105 14.20963287 21.00171089 C13.12183889 19.91176098 12.03577734 18.82007906 10.9515419 17.7265892 C9.4770881 16.24003352 7.99668083 14.75967947 6.51455688 13.28077698 C5.68611582 12.44919351 4.85767475 11.61761003 4.00412941 10.76082706 C-0.03100662 7.21555863 -1.6283804 10.3710379 -4.87882996 13.60467529 Z " fill="#DEDEE2" transform="translate(267,412)"/>
<path d="M0 0 C13.96139145 11.95226316 25.46331533 28.36088218 28 47 C29.62078705 71.59204881 24.00927352 93.00618138 7.875 112.125 C-6.48055382 127.42627443 -26.21719672 135.55108331 -46.95532227 136.45117188 C-66.42913468 136.84414559 -85.74127641 129.31755372 -100 116 C-114.11775477 102.40032797 -123.54708488 84.49205744 -124.23828125 64.65625 C-124.64441022 42.33184816 -119.5662754 23.655628 -104 7 C-75.57019142 -21.71458128 -32.0200032 -25.12088971 0 0 Z M-91 5 C-92.47339844 6.14855469 -92.47339844 6.14855469 -93.9765625 7.3203125 C-97.31619213 10.13463728 -99.96681259 13.36199522 -102.625 16.8125 C-103.10791504 17.43850098 -103.59083008 18.06450195 -104.08837891 18.70947266 C-107.31961101 22.96656292 -110.13729372 26.96024796 -112 32 C-112.44085938 33.06605469 -112.88171875 34.13210938 -113.3359375 35.23046875 C-119.1786823 50.47371889 -119.67446003 68.97259148 -113 84 C-112.50242188 85.15628906 -112.00484375 86.31257812 -111.4921875 87.50390625 C-103.0574216 105.68769228 -89.10899387 118.60126203 -70.5 125.9375 C-53.91324161 130.97276594 -32.4495066 130.15337984 -17.11328125 121.9765625 C2.24914739 111.13171229 13.85368402 95.30120292 20 74 C24.15088327 57.80880634 20.34453412 40.13664775 12.62890625 25.7109375 C10.09001831 21.48554606 7.25468371 17.69787469 4 14 C3.39414062 13.31164062 2.78828125 12.62328125 2.1640625 11.9140625 C-2.90957091 6.50908976 -8.59588061 2.68394491 -15 -1 C-15.80308594 -1.47566406 -16.60617187 -1.95132812 -17.43359375 -2.44140625 C-40.69426488 -15.23668511 -70.62604107 -11.02134043 -91 5 Z " fill="#E1E1E4" transform="translate(315,485)"/>
<path d="M0 0 C2.64 0 5.28 0 8 0 C8 89.76 8 179.52 8 272 C5.36 272 2.72 272 0 272 C0 182.24 0 92.48 0 0 Z " fill="#E5E5E7" transform="translate(433,406)"/>
<path d="M0 0 C3.3 0 6.6 0 10 0 C10 1.32 10 2.64 10 4 C10.639375 3.34 11.27875 2.68 11.9375 2 C16.01759286 -0.66455044 19.24561999 -0.75395952 24 0 C26.5625 1.375 26.5625 1.375 28 3 C28 3.66 28 4.32 28 5 C28.969375 4.175 29.93875 3.35 30.9375 2.5 C34.64256111 -0.15077543 37.48199476 -0.63503093 41.984375 -0.359375 C44.71884879 0.12816684 46.14988906 0.92787575 48 3 C50.13459875 6.40114654 50.23428712 9.10271348 50.1953125 13.078125 C50.18886719 14.23828125 50.18242187 15.3984375 50.17578125 16.59375 C50.15902344 17.8003125 50.14226562 19.006875 50.125 20.25 C50.11597656 21.47203125 50.10695313 22.6940625 50.09765625 23.953125 C50.07409513 26.96894782 50.04119706 29.98437492 50 33 C46.7 33 43.4 33 40 33 C39.93941406 31.35128906 39.87882812 29.70257812 39.81640625 28.00390625 C39.73202063 25.856761 39.64737165 23.70962609 39.5625 21.5625 C39.52318359 20.47388672 39.48386719 19.38527344 39.44335938 18.26367188 C39.40146484 17.22919922 39.35957031 16.19472656 39.31640625 15.12890625 C39.26141968 13.69140015 39.26141968 13.69140015 39.20532227 12.22485352 C39.24165576 10.02861075 39.24165576 10.02861075 38 9 C35 8.83333333 35 8.83333333 32 9 C30.28556781 10.71443219 30.76947033 13.00445241 30.68359375 15.34765625 C30.64169922 16.42724609 30.59980469 17.50683594 30.55664062 18.61914062 C30.51732422 19.75544922 30.47800781 20.89175781 30.4375 22.0625 C30.39431641 23.20267578 30.35113281 24.34285156 30.30664062 25.51757812 C30.20017161 28.34492195 30.09815793 31.17235738 30 34 C26.7 34 23.4 34 20 34 C19.97494385 33.27820557 19.9498877 32.55641113 19.92407227 31.81274414 C19.80848698 28.562465 19.68559226 25.31250312 19.5625 22.0625 C19.52318359 20.92619141 19.48386719 19.78988281 19.44335938 18.61914062 C19.40146484 17.53955078 19.35957031 16.45996094 19.31640625 15.34765625 C19.27974854 14.34742432 19.24309082 13.34719238 19.20532227 12.31665039 C19.25328159 10.03930812 19.25328159 10.03930812 18 9 C15 8.83333333 15 8.83333333 12 9 C10.28556781 10.71443219 10.76947033 13.00445241 10.68359375 15.34765625 C10.64169922 16.42724609 10.59980469 17.50683594 10.55664062 18.61914062 C10.51732422 19.75544922 10.47800781 20.89175781 10.4375 22.0625 C10.39431641 23.20267578 10.35113281 24.34285156 10.30664062 25.51757812 C10.20017161 28.34492195 10.09815793 31.17235738 10 34 C6.7 34 3.4 34 0 34 C0 22.78 0 11.56 0 0 Z " fill="#E2E2E5" transform="translate(276,528)"/>
<path d="M0 0 C0.69931641 -0.020625 1.39863281 -0.04125 2.11914062 -0.0625 C6.91804328 -0.09841321 10.11040737 0.73914475 14.1875 3.25 C17.08941935 6.15191935 17.1310711 8.91839936 17.30102539 12.92895508 C17.29578857 13.86634521 17.29055176 14.80373535 17.28515625 15.76953125 C17.28193359 16.79111328 17.27871094 17.81269531 17.27539062 18.86523438 C17.26701172 19.92033203 17.25863281 20.97542969 17.25 22.0625 C17.24548828 23.13693359 17.24097656 24.21136719 17.23632812 25.31835938 C17.22457744 27.96226357 17.206643 30.606139 17.1875 33.25 C13.8875 33.25 10.5875 33.25 7.1875 33.25 C6.8575 32.59 6.5275 31.93 6.1875 31.25 C5.548125 31.745 4.90875 32.24 4.25 32.75 C0.12096027 34.7723868 -3.29566749 35.07495494 -7.8125 34.25 C-10.875 32.4375 -10.875 32.4375 -12.8125 29.25 C-13.49268437 25.44996168 -13.52155434 22.04724968 -12.8125 18.25 C-9.77956804 14.23870289 -5.79467609 13.46127604 -1.0390625 12.5546875 C1.72464186 12.17649638 4.40324088 12.10721748 7.1875 12.25 C6.8575 11.26 6.5275 10.27 6.1875 9.25 C3.60629934 7.95939967 1.69330171 8.11727667 -1.1875 8.125 C-2.14398438 8.12242187 -3.10046875 8.11984375 -4.0859375 8.1171875 C-6.49390854 8.23448122 -8.51240068 8.56324049 -10.8125 9.25 C-10.8125 6.61 -10.8125 3.97 -10.8125 1.25 C-7.17206737 0.03652246 -3.79194814 0.0275028 0 0 Z " fill="#E3E3E5" transform="translate(219.8125,527.75)"/>
<path d="M0 0 C2.97 0 5.94 0 9 0 C9.81822733 2.37316118 10.62968707 4.7482942 11.4375 7.125 C11.66759766 7.79015625 11.89769531 8.4553125 12.13476562 9.140625 C13.46674519 13.07865153 14.43925034 16.86205422 15 21 C15.66 21 16.32 21 17 21 C17.11214844 19.99839844 17.22429688 18.99679687 17.33984375 17.96484375 C17.91172035 13.96170753 19.15365825 10.35553549 20.5625 6.5625 C21.01753906 5.32628906 21.47257813 4.09007812 21.94140625 2.81640625 C22.29074219 1.88699219 22.64007812 0.95757813 23 0 C25.64 0 28.28 0 31 0 C31 9.9 31 19.8 31 30 C29.35 30 27.7 30 26 30 C26 23.4 26 16.8 26 10 C25.34 10 24.68 10 24 10 C23.9175 10.928125 23.835 11.85625 23.75 12.8125 C23.06495937 17.71859979 21.57278405 25.42721595 18 29 C16.33382885 29.04063832 14.66611905 29.042721 13 29 C11 23.66666667 9 18.33333333 7 13 C6.67 18.61 6.34 24.22 6 30 C4.35 30 2.7 30 1 30 C0 29 0 29 -0.11352539 26.22436523 C-0.10828857 25.01466064 -0.10305176 23.80495605 -0.09765625 22.55859375 C-0.09443359 21.25341797 -0.09121094 19.94824219 -0.08789062 18.60351562 C-0.07953401 17.2148431 -0.07106905 15.82617123 -0.0625 14.4375 C-0.05748666 13.04492344 -0.05292347 11.65234519 -0.04882812 10.25976562 C-0.03699434 6.8398013 -0.0205088 3.41992156 0 0 Z " fill="#DEDEE2" transform="translate(714,531)"/>
<path d="M0 0 C1.23492187 -0.01417969 2.46984375 -0.02835938 3.7421875 -0.04296875 C7.125 0.1875 7.125 0.1875 11.125 2.1875 C11.125 5.1575 11.125 8.1275 11.125 11.1875 C10.3 10.6925 9.475 10.1975 8.625 9.6875 C4.26641218 7.81953379 1.82693771 7.72501432 -2.875 8.1875 C-4.69447194 9.29825661 -4.69447194 9.29825661 -5.875 11.1875 C-6.35078317 13.78865544 -6.35078317 13.78865544 -6.25 16.625 C-6.25773438 17.57246094 -6.26546875 18.51992188 -6.2734375 19.49609375 C-5.81031884 22.62441488 -5.15157716 24.00239245 -2.875 26.1875 C1.42892289 27.21109215 5.26084485 26.61075966 9.1875 24.6875 C9.826875 24.1925 10.46625 23.6975 11.125 23.1875 C11.125 26.1575 11.125 29.1275 11.125 32.1875 C5.24187412 35.12906294 -0.39836141 34.80432272 -6.875 34.1875 C-11.85528364 32.42761835 -14.62325381 28.49334824 -17.0625 24 C-18.56446091 18.80090455 -18.52059502 14.05255228 -16.75 8.9375 C-12.30400645 2.41670946 -7.81729252 0.04063042 0 0 Z " fill="#E0E0E3" transform="translate(258.875,527.8125)"/>
<path d="M0 0 C1.98 0 3.96 0 6 0 C6.33 0.66 6.66 1.32 7 2 C7.66 1.34 8.32 0.68 9 0 C12.08534443 -0.40463534 14.03861472 -0.6285158 17 0 C20.22463289 2.62001422 21.65343024 4.13052275 22.40625 8.19140625 C22.6072659 13.14142291 21.77052365 16.79290854 19 21 C15.32653229 23.44897847 13.33643601 23.31537716 9 23 C8.34 22.34 7.68 21.68 7 21 C6.67 24.63 6.34 28.26 6 32 C4.02 32 2.04 32 0 32 C0 21.44 0 10.88 0 0 Z " fill="#DFDFE2" transform="translate(572,538)"/>
<path d="M0 0 C1.32 0.33 2.64 0.66 4 1 C3.66666667 3.33333333 3.33333333 5.66666667 3 8 C2.9175 9.2375 2.835 10.475 2.75 11.75 C2 15 2 15 -0.1875 16.9375 C-3.31918019 18.12057918 -5.67919334 18.23168419 -9 18 C-9 18.99 -9 19.98 -9 21 C-7.98679687 20.94779297 -7.98679687 20.94779297 -6.953125 20.89453125 C-6.06109375 20.86746094 -5.1690625 20.84039063 -4.25 20.8125 C-2.92742188 20.76029297 -2.92742188 20.76029297 -1.578125 20.70703125 C1.49900223 21.0567048 2.80697232 21.84226242 5 24 C5.51073645 27.42923043 5.4061374 29.28442457 3.6875 32.3125 C0.74801545 35.25198455 -2.41085312 35.20932357 -6.375 35.3125 C-10.36018018 35.29666485 -11.72056879 35.17532939 -15.1875 33 C-15.785625 32.34 -16.38375 31.68 -17 31 C-16.67 29.35 -16.34 27.7 -16 26 C-15.01 25.67 -14.02 25.34 -13 25 C-13.20625 23.88625 -13.4125 22.7725 -13.625 21.625 C-13.74875 20.42875 -13.8725 19.2325 -14 18 C-13.34 17.34 -12.68 16.68 -12 16 C-12.66 15.34 -13.32 14.68 -14 14 C-14.67522936 6.91009174 -14.67522936 6.91009174 -12.5625 4.0625 C-9.34716192 2.72931104 -6.38475603 2.49541236 -2.92578125 2.30859375 C-2.29027344 2.20675781 -1.65476562 2.10492187 -1 2 C-0.67 1.34 -0.34 0.68 0 0 Z " fill="#E1E1E4" transform="translate(695,535)"/>
<path d="M0 0 C1.32 0 2.64 0 4 0 C4.33 0.66 4.66 1.32 5 2 C5.99 1.34 6.98 0.68 8 0 C12.17262337 -0.46362482 14.28714371 -0.4494094 17.875 1.8125 C21.17068295 5.2051148 21.28226828 8.30940312 21.22265625 12.93359375 C20.88205963 16.0945694 19.70277003 18.35124663 18 21 C13.93150591 23.71232939 11.83523216 23.30699887 7 23 C6.34 22.34 5.68 21.68 5 21 C4.67 24.63 4.34 28.26 4 32 C2.68 32 1.36 32 0 32 C0 21.44 0 10.88 0 0 Z " fill="#BCBCC7" transform="translate(833,596)"/>
<path d="M0 0 C1.32 0 2.64 0 4 0 C4 10.56 4 21.12 4 32 C2.68 32 1.36 32 0 32 C-0.33 31.34 -0.66 30.68 -1 30 C-1.99 30.66 -2.98 31.32 -4 32 C-7.68175404 32.33470491 -10.10293238 32.4957479 -13.375 30.6875 C-16.98125222 26.94254577 -16.39313937 21.78979114 -16.33984375 16.8984375 C-16 14 -16 14 -13.9375 10.75 C-10.28267979 8.5726603 -8.19267815 8.46638642 -4 9 C-2.68 9.66 -1.36 10.32 0 11 C0 7.37 0 3.74 0 0 Z " fill="#C9C9D1" transform="translate(667,587)"/>
<path d="M0 0 C2.97 0 5.94 0 9 0 C10.50752893 4.26821354 12.00472959 8.53997809 13.5 12.8125 C13.92925781 14.02744141 14.35851562 15.24238281 14.80078125 16.49414062 C15.40986328 18.23920898 15.40986328 18.23920898 16.03125 20.01953125 C16.40830078 21.09307861 16.78535156 22.16662598 17.17382812 23.27270508 C18 26 18 26 18 29 C16.02 29 14.04 29 12 29 C11.34 27.02 10.68 25.04 10 23 C6.37 23 2.74 23 -1 23 C-1.66 24.98 -2.32 26.96 -3 29 C-4.98 29 -6.96 29 -9 29 C-8.41066394 24.94012934 -7.52036888 21.24802636 -6.15234375 17.3828125 C-5.79462891 16.36445313 -5.43691406 15.34609375 -5.06835938 14.296875 C-4.50858398 12.72679687 -4.50858398 12.72679687 -3.9375 11.125 C-3.37192383 9.52011719 -3.37192383 9.52011719 -2.79492188 7.8828125 C-1.86766315 5.2536232 -0.93590193 2.62612238 0 0 Z " fill="#E2E2E5" transform="translate(485,473)"/>
<path d="M0 0 C1.65 0 3.3 0 5 0 C5.33 0.66 5.66 1.32 6 2 C6.66 1.34 7.32 0.68 8 0 C15.30434783 -0.46376812 15.30434783 -0.46376812 19 2 C19.66 1.34 20.32 0.68 21 0 C28.25726746 -0.57597361 28.25726746 -0.57597361 30.60498047 1.24462891 C32.37519351 3.47211084 32.34969372 4.63187846 32.29296875 7.44921875 C32.2784668 8.72055664 32.2784668 8.72055664 32.26367188 10.01757812 C32.23853516 10.89865234 32.21339844 11.77972656 32.1875 12.6875 C32.16719727 14.02651367 32.16719727 14.02651367 32.14648438 15.39257812 C32.11114079 17.59566166 32.06180493 19.79752582 32 22 C30.35 22 28.7 22 27 22 C26.67 16.72 26.34 11.44 26 6 C24.02 6 22.04 6 20 6 C19.67 11.61 19.34 17.22 19 23 C17.02 23 15.04 23 13 23 C12.67 17.39 12.34 11.78 12 6 C10.35 6 8.7 6 7 6 C5.00383446 7.99616554 5.59016573 11.81701963 5.4375 14.5625 C5.39431641 15.27341797 5.35113281 15.98433594 5.30664062 16.71679688 C5.20028223 18.47761912 5.09961154 20.2387832 5 22 C3.35 22 1.7 22 0 22 C0 14.74 0 7.48 0 0 Z " fill="#D7D7DC" transform="translate(534,538)"/>
<path d="M0 0 C2.93423195 1.79646854 4.47205355 2.9441071 6 6 C6.42308538 10.59698532 6.53894467 14.70653278 4.75 19 C1.65469179 22.5374951 -0.20984554 22.92474719 -4.9375 23.375 C-9.06330962 23.27512007 -11.09331798 21.99217267 -14 19 C-16.69346914 14.95979629 -16.55014255 11.74289561 -16 7 C-12.69189977 -0.40384336 -7.4255274 -0.9948075 0 0 Z " fill="#DFDFE2" transform="translate(522,538)"/>
<path d="M0 0 C4.51315789 2.02631579 4.51315789 2.02631579 6 5 C6.57220937 10.53408203 7.00593047 15.34508213 4.0625 20.1875 C0.04720544 22.56389882 -3.34778581 23.2955127 -8 23 C-10.97469951 21.7974619 -12.41417229 20.94314107 -14.1015625 18.2265625 C-15.82849151 13.9467819 -15.62150725 9.51762257 -15 5 C-11.45338638 -1.02924315 -6.38279658 -0.98519356 0 0 Z " fill="#E4E4E6" transform="translate(755,480)"/>
<path d="M0 0 C2.95397948 1.06040289 4.51923844 2.21132843 6 5 C7.05948592 10.59903506 7.05444475 15.26526831 4.0625 20.1875 C0.04349953 22.56609212 -3.33177616 23.43482577 -8 23 C-11.91835873 21.04082064 -13.60412328 20.18763017 -15 16 C-15.57054828 10.73465444 -15.85564717 6.45460018 -13.125 1.8125 C-8.66691328 -0.7731903 -5.02739472 -0.94614446 0 0 Z " fill="#E4E4E6" transform="translate(677,480)"/>
<path d="M0 0 C2.93423195 1.79646854 4.47205355 2.9441071 6 6 C6.42100363 10.57436641 6.51445978 14.70031214 4.8125 19 C1.90236814 22.21117998 -0.71711483 22.83622742 -4.9375 23.375 C-8.86854813 22.89364717 -10.9523224 21.48066781 -14 19 C-15.54886065 14.35341805 -15.59446571 9.84772629 -15 5 C-11.49577978 -0.95717437 -6.34126862 -1.15579773 0 0 Z " fill="#E5E5E7" transform="translate(563,480)"/>
<path d="M0 0 C1.98 0 3.96 0 6 0 C6.33 3.3 6.66 6.6 7 10 C7.66 9.67 8.32 9.34 9 9 C16.38735202 8.53096178 16.38735202 8.53096178 18.60498047 10.22875977 C20.40788284 12.51788414 20.34815451 13.77991414 20.29296875 16.66796875 C20.28330078 17.56064453 20.27363281 18.45332031 20.26367188 19.37304688 C20.23853516 20.30181641 20.21339844 21.23058594 20.1875 22.1875 C20.16719727 23.59805664 20.16719727 23.59805664 20.14648438 25.03710938 C20.11113096 27.35865038 20.06178674 29.67903653 20 32 C18.02 32 16.04 32 14 32 C14 26.06 14 20.12 14 14 C11.69 14 9.38 14 7 14 C6.67 19.94 6.34 25.88 6 32 C4.02 32 2.04 32 0 32 C0 21.44 0 10.88 0 0 Z " fill="#D9D9DE" transform="translate(799,529)"/>
<path d="M0 0 C3.125 2 3.125 2 5 5 C5.3891469 7.80704627 5.24211197 10.14307878 5 13 C0.05 13 -4.9 13 -10 13 C-9.67 14.32 -9.34 15.64 -9 17 C-2.91591528 17.19814261 -2.91591528 17.19814261 3 16 C3.33 17.32 3.66 18.64 4 20 C0.30596901 22.77052324 -2.55960366 23.53879947 -7.0703125 23.3515625 C-10.242153 22.77369682 -11.85500693 21.33425716 -14 19 C-16.42181018 15.14712016 -16.24255721 11.53032521 -15.5859375 7.16015625 C-13.47559718 -0.61996506 -6.92487611 -1.38497522 0 0 Z " fill="#DEDEE2" transform="translate(878,538)"/>
<path d="M0 0 C0.85464844 -0.02835937 1.70929687 -0.05671875 2.58984375 -0.0859375 C5.98830005 0.547582 7.08651554 1.54956934 9.0625 4.375 C9.453125 7.828125 9.453125 7.828125 9.3125 11.625 C9.27640625 12.88828125 9.2403125 14.1515625 9.203125 15.453125 C9.13351562 16.89945312 9.13351562 16.89945312 9.0625 18.375 C10.0525 18.375 11.0425 18.375 12.0625 18.375 C12.0625 19.695 12.0625 21.015 12.0625 22.375 C8.72916667 22.375 5.39583333 22.375 2.0625 22.375 C0.94875 22.643125 -0.165 22.91125 -1.3125 23.1875 C-4.9375 23.375 -4.9375 23.375 -7.875 21.25 C-9.9375 18.375 -9.9375 18.375 -10.5625 15.8125 C-9.64159474 12.22096947 -8.08771211 11.25172211 -4.9375 9.375 C-1.125 8.625 -1.125 8.625 2.0625 8.375 C2.0625 7.385 2.0625 6.395 2.0625 5.375 C0.4228125 5.6225 0.4228125 5.6225 -1.25 5.875 C-4.9375 6.375 -4.9375 6.375 -7.9375 6.375 C-7.9375 5.055 -7.9375 3.735 -7.9375 2.375 C-4.7524857 0.25165713 -3.69293693 0.05553289 0 0 Z " fill="#DBDBDF" transform="translate(617.9375,479.625)"/>
<path d="M0 0 C1.56041016 -0.00773438 1.56041016 -0.00773438 3.15234375 -0.015625 C6.03457021 0.2474507 7.68045651 0.64006716 10.0625 2.25 C11.3125 4.875 11.3125 4.875 12.0625 7.25 C9.6875 7.875 9.6875 7.875 7.0625 8.25 C6.4025 7.59 5.7425 6.93 5.0625 6.25 C2.92431539 5.89390808 2.92431539 5.89390808 0.5625 5.9375 C-0.2315625 5.92074219 -1.025625 5.90398438 -1.84375 5.88671875 C-2.5346875 6.00660156 -3.225625 6.12648438 -3.9375 6.25 C-6.15227492 9.57216238 -6.23417707 10.80033323 -6.25 14.6875 C-6.26675781 15.63496094 -6.28351563 16.58242188 -6.30078125 17.55859375 C-5.88058398 20.67166815 -5.14134908 22.03582844 -2.9375 24.25 C1.14415827 24.76020728 2.59207297 24.56361802 6.0625 22.25 C6.3925 21.26 6.7225 20.27 7.0625 19.25 C8.7125 19.91 10.3625 20.57 12.0625 21.25 C11.51962148 25.05014965 9.94785357 26.78896313 7.0625 29.25 C3.33398658 30.49283781 -0.06496761 30.7780726 -3.9375 30.25 C-8.42245083 27.96521373 -10.72892926 25.73060616 -12.9375 21.25 C-13.70023906 15.75965307 -14.23874928 9.40078734 -11.125 4.5625 C-7.44056518 0.66752605 -5.2335099 -0.02587644 0 0 Z " fill="#E1E1E4" transform="translate(490.9375,530.75)"/>
<path d="M0 0 C0.85722656 -0.01675781 1.71445312 -0.03351562 2.59765625 -0.05078125 C4.9375 0.3125 4.9375 0.3125 6.734375 1.3515625 C8.60829212 4.40580404 8.25112644 7.536374 8.125 11 C8.10469727 12.0528418 8.10469727 12.0528418 8.08398438 13.12695312 C8.04870182 14.85579829 7.99489583 16.58424765 7.9375 18.3125 C8.9275 18.3125 9.9175 18.3125 10.9375 18.3125 C10.9375 19.9625 10.9375 21.6125 10.9375 23.3125 C8.6275 22.9825 6.3175 22.6525 3.9375 22.3125 C3.9375 21.6525 3.9375 20.9925 3.9375 20.3125 C3.421875 20.8075 2.90625 21.3025 2.375 21.8125 C-0.95046936 23.85894269 -3.22556413 23.73107482 -7.0625 23.3125 C-9 22.25 -9 22.25 -10.0625 20.3125 C-10.71642028 14.20924409 -10.71642028 14.20924409 -8.86328125 11.66796875 C-6.56957006 9.94146597 -4.69392237 9.60092196 -1.875 9.125 C-0.97394531 8.96644531 -0.07289063 8.80789063 0.85546875 8.64453125 C1.54253906 8.53496094 2.22960937 8.42539062 2.9375 8.3125 C2.6075 7.3225 2.2775 6.3325 1.9375 5.3125 C-1.53191546 5.77072468 -4.73645049 6.20381683 -8.0625 7.3125 C-8.3925 5.6625 -8.7225 4.0125 -9.0625 2.3125 C-5.94428643 0.4965566 -3.5974669 0.01627813 0 0 Z " fill="#E2E2E5" transform="translate(761.0625,537.6875)"/>
<path d="M0 0 C1.98 0 3.96 0 6 0 C6.26554688 0.68707031 6.53109375 1.37414062 6.8046875 2.08203125 C7.15789063 2.98308594 7.51109375 3.88414062 7.875 4.8125 C8.39707031 6.15248047 8.39707031 6.15248047 8.9296875 7.51953125 C9.98832155 10.17711591 9.98832155 10.17711591 12 13 C13.65 8.71 15.3 4.42 17 0 C18.98 0 20.96 0 23 0 C21.33747204 6.44427505 19.08254867 12.63645798 16.625 18.8125 C16.20528931 19.90582642 16.20528931 19.90582642 15.77709961 21.02124023 C13.91660482 25.59853109 11.97195304 28.86392648 8 32 C5.14432587 32.62296556 2.96007574 32.25085388 0 32 C0 30.35 0 28.7 0 27 C3.465 26.505 3.465 26.505 7 26 C8.11078967 22.71287513 7.91653286 20.99802113 6.6015625 17.8125 C6.28703125 17.03132812 5.9725 16.25015625 5.6484375 15.4453125 C5.31070313 14.63835938 4.97296875 13.83140625 4.625 13 C3.96932217 11.39666281 3.31560597 9.79252171 2.6640625 8.1875 C2.36967285 7.47980469 2.0752832 6.77210938 1.77197266 6.04296875 C1.0174805 4.04626085 0.47370728 2.07940557 0 0 Z " fill="#DFDFE2" transform="translate(903,538)"/>
<path d="M0 0 C1.98 0 3.96 0 6 0 C6.33 0.66 6.66 1.32 7 2 C7.66 1.34 8.32 0.68 9 0 C15.93572311 -0.67119901 15.93572311 -0.67119901 19.2421875 1.4140625 C21.93134771 5.37011597 21.42904584 9.08792173 21.25 13.75 C21.23195313 14.63816406 21.21390625 15.52632812 21.1953125 16.44140625 C21.14827374 18.62870848 21.08257009 20.81379816 21 23 C19.02 23 17.04 23 15 23 C14.67 17.39 14.34 11.78 14 6 C12.02 6 10.04 6 8 6 C5.94077598 8.05922402 6.58572421 12.21708124 6.4375 15.0625 C6.39431641 15.82111328 6.35113281 16.57972656 6.30664062 17.36132812 C6.20026367 19.24065438 6.09960066 21.12030244 6 23 C4.33388095 23.042721 2.66617115 23.04063832 1 23 C0 22 0 22 -0.11352539 19.86694336 C-0.10828857 18.95050049 -0.10305176 18.03405762 -0.09765625 17.08984375 C-0.09443359 16.10048828 -0.09121094 15.11113281 -0.08789062 14.09179688 C-0.07951172 13.05087891 -0.07113281 12.00996094 -0.0625 10.9375 C-0.05798828 9.89271484 -0.05347656 8.84792969 -0.04882812 7.77148438 C-0.03699913 5.1809334 -0.02051689 2.59049441 0 0 Z " fill="#D7D7DC" transform="translate(654,538)"/>
<path d="M0 0 C0.76183594 -0.01675781 1.52367187 -0.03351562 2.30859375 -0.05078125 C5.35115596 0.43961439 6.53780126 0.94501931 8.5625 3.3125 C9.05620881 6.22186928 8.93791383 9.06001043 8.8125 12 C8.79445313 12.79728516 8.77640625 13.59457031 8.7578125 14.41601562 C8.71072247 16.38202449 8.63897899 18.34741494 8.5625 20.3125 C9.5525 20.3125 10.5425 20.3125 11.5625 20.3125 C11.5625 21.3025 11.5625 22.2925 11.5625 23.3125 C9.1875 23.4375 9.1875 23.4375 6.5625 23.3125 C5.9025 22.6525 5.2425 21.9925 4.5625 21.3125 C3.5725 21.9725 2.5825 22.6325 1.5625 23.3125 C-4.45737353 23.84998871 -4.45737353 23.84998871 -7.375 22.25 C-9.0515629 19.19273824 -8.80278977 16.7218712 -8.4375 13.3125 C-6.18722847 10.22662276 -3.92219868 9.7449816 -0.25 9.125 C0.65105469 8.96644531 1.55210937 8.80789063 2.48046875 8.64453125 C3.16753906 8.53496094 3.85460937 8.42539062 4.5625 8.3125 C4.2325 6.9925 3.9025 5.6725 3.5625 4.3125 C-2.2349423 4.06821657 -2.2349423 4.06821657 -7.4375 6.3125 C-7.4375 4.9925 -7.4375 3.6725 -7.4375 2.3125 C-4.35229997 0.25569998 -3.52476496 0.01783186 0 0 Z " fill="#C9C9D1" transform="translate(817.4375,595.6875)"/>
<path d="M0 0 C1.98 0 3.96 0 6 0 C6.33 0.66 6.66 1.32 7 2 C7.66 1.34 8.32 0.68 9 0 C16.24979174 -0.5753803 16.24979174 -0.5753803 18.60498047 1.23095703 C20.40882818 3.5184405 20.34814 4.78067312 20.29296875 7.66796875 C20.28330078 8.56064453 20.27363281 9.45332031 20.26367188 10.37304688 C20.23853516 11.30181641 20.21339844 12.23058594 20.1875 13.1875 C20.16719727 14.59805664 20.16719727 14.59805664 20.14648438 16.03710938 C20.11113096 18.35865038 20.06178674 20.67903653 20 23 C18.35 23 16.7 23 15 23 C14.67 17.39 14.34 11.78 14 6 C12.02 6 10.04 6 8 6 C5.94077598 8.05922402 6.58572421 12.21708124 6.4375 15.0625 C6.39431641 15.82111328 6.35113281 16.57972656 6.30664062 17.36132812 C6.20026367 19.24065438 6.09960066 21.12030244 6 23 C4.02 23 2.04 23 0 23 C0 15.41 0 7.82 0 0 Z " fill="#D9D9DD" transform="translate(837,538)"/>
<path d="M0 0 C1.65 0 3.3 0 5 0 C5.06058594 1.14339844 5.12117187 2.28679688 5.18359375 3.46484375 C5.26798428 4.95574305 5.35263302 6.44662775 5.4375 7.9375 C5.47681641 8.69224609 5.51613281 9.44699219 5.55664062 10.22460938 C5.44038024 13.91944187 5.44038024 13.91944187 7 17 C8.66617115 17.04063832 10.33388095 17.042721 12 17 C13.52106634 13.95786733 13.37429338 10.71952428 13.5625 7.375 C13.60568359 6.66859375 13.64886719 5.9621875 13.69335938 5.234375 C13.79944751 3.48981463 13.90022889 1.74493303 14 0 C15.98 0 17.96 0 20 0 C20 7.59 20 15.18 20 23 C18.02 23 16.04 23 14 23 C13.67 22.34 13.34 21.68 13 21 C12.01 21.66 11.02 22.32 10 23 C6.58674818 23.43573427 4.73954778 23.48063967 1.82421875 21.5859375 C-0.95751779 17.64266215 -0.43038136 13.94685321 -0.25 9.25 C-0.23195313 8.36183594 -0.21390625 7.47367188 -0.1953125 6.55859375 C-0.14827374 4.37129152 -0.08257009 2.18620184 0 0 Z " fill="#DFDFE2" transform="translate(599,538)"/>
<path d="M0 0 C3 1.5 3 1.5 5 4 C5.41175039 6.80204162 5.23807011 9.14315872 5 12 C0.05 12 -4.9 12 -10 12 C-9.01 14.31 -8.02 16.62 -7 19 C-3.58343976 19.16677282 -3.58343976 19.16677282 0 19 C0.66 18.34 1.32 17.68 2 17 C2.99 17 3.98 17 5 17 C4.67012361 19.47407292 4.42027913 20.6637767 2.4375 22.25 C-1.08819776 23.33483008 -4.38793903 23.71667876 -8 23 C-11.21954645 20.46546343 -12.70432435 18.88702695 -14 15 C-14.50149463 8.88176547 -14.06790897 5.90541964 -10 1 C-6.78304054 -0.60847973 -3.4885811 -0.46025257 0 0 Z " fill="#EEEEED" transform="translate(691,596)"/>
<path d="M0 0 C3.0625 2.0625 3.0625 2.0625 5 5 C5 7.31 5 9.62 5 12 C-0.28 12 -5.56 12 -11 12 C-10.34 14.31 -9.68 16.62 -9 19 C-4.07872966 19.16682272 -0.49656104 19.24828052 4 17 C3.6875 18.875 3.6875 18.875 3 21 C-1.05302253 23.70201502 -4.24534146 23.74942079 -9 23 C-12.0625 21.3125 -12.0625 21.3125 -14 18 C-14.91710379 12.08051187 -15.13204794 6.9354368 -12.0625 1.6875 C-7.91858298 -0.59588285 -4.62517646 -1.0287463 0 0 Z " fill="#D5D5DA" transform="translate(890,596)"/>
<path d="M0 0 C5 1 5 1 6.5456543 2.62646484 C7.1785437 3.65827881 7.1785437 3.65827881 7.82421875 4.7109375 C8.29537109 5.46117187 8.76652344 6.21140625 9.25195312 6.984375 C9.72568359 7.77328125 10.19941406 8.5621875 10.6875 9.375 C11.41549805 10.54675781 11.41549805 10.54675781 12.15820312 11.7421875 C13.06016123 13.1952731 13.95566401 14.65239998 14.8425293 16.11474609 C15.85701394 17.76710855 16.92447068 19.38670602 18 21 C18.33 14.07 18.66 7.14 19 0 C19.99 0 20.98 0 22 0 C22 9.57 22 19.14 22 29 C17 28 17 28 15.23901367 25.95874023 C14.72056885 25.08419189 14.20212402 24.20964355 13.66796875 23.30859375 C12.81235352 21.89223633 12.81235352 21.89223633 11.93945312 20.44726562 C11.07223633 18.95743164 11.07223633 18.95743164 10.1875 17.4375 C9.59001953 16.44041016 8.99253906 15.44332031 8.37695312 14.41601562 C6.90359039 11.95255314 5.44989547 9.47734702 4 7 C3.67 14.26 3.34 21.52 3 29 C2.01 29 1.02 29 0 29 C0 19.43 0 9.86 0 0 Z " fill="#E2E2E5" transform="translate(480,589)"/>
<path d="M0 0 C1.65 0 3.3 0 5 0 C5.33 0.66 5.66 1.32 6 2 C6.66 1.34 7.32 0.68 8 0 C10.05859375 -0.3359375 10.05859375 -0.3359375 12.4375 -0.375 C13.21996094 -0.40335937 14.00242187 -0.43171875 14.80859375 -0.4609375 C17 0 17 0 18.7734375 1.4453125 C20.63880568 5.3305061 20.31688414 9.0035461 20.1875 13.25 C20.16719727 14.51070313 20.16719727 14.51070313 20.14648438 15.796875 C20.11123464 17.86485938 20.0574302 19.93251271 20 22 C18.02 22 16.04 22 14 22 C14 16.39 14 10.78 14 5 C11.69 5.33 9.38 5.66 7 6 C5.5192152 8.9615696 5.64685963 11.83506295 5.4375 15.125 C5.35371094 16.40632813 5.26992188 17.68765625 5.18359375 19.0078125 C5.09271484 20.48894531 5.09271484 20.48894531 5 22 C3.35 22 1.7 22 0 22 C0 14.74 0 7.48 0 0 Z " fill="#DFDFE2" transform="translate(689,480)"/>
<path d="M0 0 C1.32 0 2.64 0 4 0 C4.33 3.63 4.66 7.26 5 11 C5.74765625 10.19433594 6.4953125 9.38867188 7.265625 8.55859375 C8.25974198 7.51758446 9.25457096 6.47725476 10.25 5.4375 C10.98669922 4.63795898 10.98669922 4.63795898 11.73828125 3.82226562 C13.203125 2.30859375 13.203125 2.30859375 16 0 C18.359375 0.16015625 18.359375 0.16015625 20 1 C19.19433594 1.81984375 18.38867188 2.6396875 17.55859375 3.484375 C16.51757271 4.57228888 15.47724372 5.66086529 14.4375 6.75 C13.90447266 7.28882813 13.37144531 7.82765625 12.82226562 8.3828125 C11.09707297 10.15276576 11.09707297 10.15276576 9 13 C9.4388742 17.44575263 12.45854737 19.72642751 15.5625 22.625 C17.42679842 24.38072094 19.22128413 26.15388633 21 28 C21 28.66 21 29.32 21 30 C16.05887989 29.85026909 13.90803508 27.24430418 10.71484375 23.85546875 C9.86599609 22.93701172 9.86599609 22.93701172 9 22 C8.02572908 21.01596195 7.04722998 20.03607156 6.0625 19.0625 C5.381875 18.381875 4.70125 17.70125 4 17 C4 21.29 4 25.58 4 30 C2.68 30 1.36 30 0 30 C0 20.1 0 10.2 0 0 Z " fill="#CDCDD4" transform="translate(548,589)"/>
<path d="M0 0 C0.86625 0.00386719 1.7325 0.00773437 2.625 0.01171875 C5 0.3125 5 0.3125 8 2.3125 C7.34 3.6325 6.68 4.9525 6 6.3125 C3.36 5.9825 0.72 5.6525 -2 5.3125 C-1.67 6.3025 -1.34 7.2925 -1 8.3125 C1.06497387 9.29953952 1.06497387 9.29953952 3.5 9.9375 C7.92825112 11.24075112 7.92825112 11.24075112 9 12.3125 C9.29629238 15.6457893 9.35806333 17.68162652 7.6875 20.625 C5.17377555 23.13872445 3.12245579 23.3034292 -0.375 23.5625 C-4.18872515 23.29948447 -5.95161362 22.52950828 -9 20.3125 C-8.34 18.6625 -7.68 17.0125 -7 15.3125 C-6.46375 15.621875 -5.9275 15.93125 -5.375 16.25 C-2.6015043 17.49077439 0.00042837 17.9034675 3 18.3125 C3 16.9925 3 15.6725 3 14.3125 C2.37351562 14.20292969 1.74703125 14.09335937 1.1015625 13.98046875 C0.28429687 13.82191406 -0.53296875 13.66335938 -1.375 13.5 C-2.59316406 13.27376953 -2.59316406 13.27376953 -3.8359375 13.04296875 C-6 12.3125 -6 12.3125 -8 9.3125 C-8.54635469 4.06749499 -8.54635469 4.06749499 -6.79296875 1.64453125 C-4.4220555 -0.11686618 -2.92784415 -0.05663984 0 0 Z " fill="#DDDDE0" transform="translate(535,479.6875)"/>
<path d="M0 0 C0.99386719 0.02707031 1.98773437 0.05414063 3.01171875 0.08203125 C4.15060547 0.13423828 4.15060547 0.13423828 5.3125 0.1875 C5.9725 1.5075 6.6325 2.8275 7.3125 4.1875 C3.4621895 6.75437367 1.72680237 6.02038724 -2.6875 5.1875 C-2.6875 5.8475 -2.6875 6.5075 -2.6875 7.1875 C-1.97722656 7.46464844 -1.26695312 7.74179687 -0.53515625 8.02734375 C0.38394531 8.38957031 1.30304687 8.75179688 2.25 9.125 C3.16652344 9.48464844 4.08304688 9.84429687 5.02734375 10.21484375 C7.3125 11.1875 7.3125 11.1875 8.3125 12.1875 C8.6875 15.5 8.6875 15.5 8.3125 19.1875 C5.59760901 22.39600753 3.98341421 23.10363572 -0.1875 23.625 C-3.85683167 23.16633354 -5.83516865 22.52122565 -8.6875 20.1875 C-8.6875 19.1975 -8.6875 18.2075 -8.6875 17.1875 C-7.6975 16.5275 -6.7075 15.8675 -5.6875 15.1875 C-5.0275 15.8475 -4.3675 16.5075 -3.6875 17.1875 C-0.60402174 17.35431109 -0.60402174 17.35431109 2.3125 17.1875 C2.3125 16.5275 2.3125 15.8675 2.3125 15.1875 C1.76980469 15.00574219 1.22710938 14.82398438 0.66796875 14.63671875 C-0.04746094 14.38535156 -0.76289062 14.13398438 -1.5 13.875 C-2.20769531 13.63136719 -2.91539062 13.38773437 -3.64453125 13.13671875 C-5.88472511 12.09586386 -7.15043081 11.11478489 -8.6875 9.1875 C-9.3234447 4.0999424 -9.3234447 4.0999424 -7.51953125 1.51171875 C-4.95574213 -0.3414252 -3.12504272 -0.11029563 0 0 Z " fill="#DEDEE2" transform="translate(514.6875,479.8125)"/>
<path d="M0 0 C2.5625 1.5 2.5625 1.5 4 3 C3.34 4.32 2.68 5.64 2 7 C-1.3 6.34 -4.6 5.68 -8 5 C-8.02687279 6.81242052 -8.04633715 8.62495233 -8.0625 10.4375 C-8.07410156 11.44683594 -8.08570313 12.45617187 -8.09765625 13.49609375 C-8.28612676 15.94021067 -8.28612676 15.94021067 -7 17 C-4.54207971 17.33343551 -4.54207971 17.33343551 -2 17 C-1.34 16.01 -0.68 15.02 0 14 C1.65 14.66 3.3 15.32 5 16 C3.60042311 19.38231081 2.26935579 21.27928642 -1 23 C-6.05747126 23.64221857 -6.05747126 23.64221857 -9 23 C-12.29868398 20.33297891 -14.77159466 18.1155577 -15.23828125 13.79296875 C-15.43980708 6.71835156 -15.43980708 6.71835156 -13.125 2.9375 C-9.12610924 -0.70854746 -5.21847521 -0.55614301 0 0 Z " fill="#DFDFE3" transform="translate(790,538)"/>
<path d="M0 0 C1.8359375 1.53125 1.8359375 1.53125 3 3 C2.34 4.32 1.68 5.64 1 7 C0.278125 6.649375 -0.44375 6.29875 -1.1875 5.9375 C-4.32982572 4.89005809 -5.87318269 5.0445836 -9 6 C-10.38528649 7.16302154 -10.38528649 7.16302154 -10.1875 10.375 C-10.30453853 14.09675391 -10.30453853 14.09675391 -8 17 C-5.5 17.5 -5.5 17.5 -3 17 C-2.34 16.01 -1.68 15.02 -1 14 C0.65 14.66 2.3 15.32 4 16 C2.5435664 19.83968859 0.71785783 21.31006462 -3 23 C-7.64574072 23.58071759 -10.26536154 22.80097884 -14 20 C-17.12700418 15.30949373 -16.67996054 10.4840296 -16 5 C-12.55350139 -1.17992855 -6.4612077 -1.20022434 0 0 Z " fill="#E2E2E4" transform="translate(590,480)"/>
<path d="M0 0 C1.98 0 3.96 0 6 0 C6 1.65 6 3.3 6 5 C7.98 5 9.96 5 12 5 C12 6.65 12 8.3 12 10 C10.02 10 8.04 10 6 10 C6 14.29 6 18.58 6 23 C7.98 23 9.96 23 12 23 C11.67 24.65 11.34 26.3 11 28 C4.375 28.25 4.375 28.25 1 26 C-0.18681726 22.43954823 -0.09689832 19.56191663 -0.0625 15.8125 C-0.05347656 14.54019531 -0.04445313 13.26789062 -0.03515625 11.95703125 C-0.02355469 10.98121094 -0.01195312 10.00539063 0 9 C-0.99 9 -1.98 9 -3 9 C-3 7.68 -3 6.36 -3 5 C-2.01 5 -1.02 5 0 5 C0 3.35 0 1.7 0 0 Z " fill="#DDDDE1" transform="translate(626,533)"/>
<path d="M0 0 C1.98 0 3.96 0 6 0 C6 1.65 6 3.3 6 5 C7.98 5 9.96 5 12 5 C12 6.65 12 8.3 12 10 C10.02 10 8.04 10 6 10 C6.33 13.96 6.66 17.92 7 22 C8.65 22.33 10.3 22.66 12 23 C12.33 24.32 12.66 25.64 13 27 C6.02906146 28.53596951 6.02906146 28.53596951 2 26.4375 C-1.20062688 20.93642255 -0.37848574 15.21557697 0 9 C-0.99 9 -1.98 9 -3 9 C-3 7.68 -3 6.36 -3 5 C-2.01 5 -1.02 5 0 5 C0 3.35 0 1.7 0 0 Z " fill="#DDDDE1" transform="translate(634,475)"/>
<path d="M0 0 C2.6875 2 2.6875 2 4 4 C3.01 4.33 2.02 4.66 1 5 C0.34 4.67 -0.32 4.34 -1 4 C-2.54023996 3.93049459 -4.08334988 3.91547643 -5.625 3.9375 C-6.44226563 3.94652344 -7.25953125 3.95554687 -8.1015625 3.96484375 C-8.72804688 3.97644531 -9.35453125 3.98804688 -10 4 C-10.67958603 6.39719432 -10.67958603 6.39719432 -11 9 C-7.89503561 12.10496439 -3.89766474 12.67100578 0.25 13.90234375 C3 15 3 15 5 18 C5.67092652 24.15015974 5.67092652 24.15015974 3.125 27.375 C-0.75532518 30.34230749 -4.22743874 30.53028458 -9 30 C-12.5 28.5 -12.5 28.5 -15 27 C-15 25.68 -15 24.36 -15 23 C-13 24 -11 25 -9 26 C-4.34724024 26.3052622 -4.34724024 26.3052622 0 25 C0.40729228 22.67843403 0.74438677 20.3431213 1 18 C-0.22976563 17.76216797 -0.22976563 17.76216797 -1.484375 17.51953125 C-10.26436782 15.61859979 -10.26436782 15.61859979 -13.75 12.6875 C-15.26398227 9.43243812 -15.603661 7.54650838 -15 4 C-11.91146926 -1.58876991 -5.62636935 -0.88792475 0 0 Z " fill="#D3D3D9" transform="translate(598,589)"/>
<path d="M0 0 C1.32 0 2.64 0 4 0 C4.33 3.63 4.66 7.26 5 11 C5.66 10.34 6.32 9.68 7 9 C13.95573075 8.32686477 13.95573075 8.32686477 17.2421875 10.4453125 C19.87523063 14.27200184 19.43387156 17.72393076 19.25 22.25 C19.23195313 23.09046875 19.21390625 23.9309375 19.1953125 24.796875 C19.14830798 26.86507395 19.07656724 28.93268441 19 31 C18.01 31 17.02 31 16 31 C15.93941406 29.86820313 15.87882813 28.73640625 15.81640625 27.5703125 C15.73200083 26.08852855 15.64735283 24.6067584 15.5625 23.125 C15.52318359 22.37863281 15.48386719 21.63226562 15.44335938 20.86328125 C15.28426376 16.80013136 15.28426376 16.80013136 14 13 C10.58343976 12.83322718 10.58343976 12.83322718 7 13 C3.97906785 16.02093215 4.53323166 19.56372072 4.375 23.625 C4.33632813 24.42679688 4.29765625 25.22859375 4.2578125 26.0546875 C4.16346069 28.03607556 4.08063785 30.01800645 4 32 C2.68 32 1.36 32 0 32 C0 21.44 0 10.88 0 0 Z " fill="#C3C3CC" transform="translate(784,587)"/>
<path d="M0 0 C0.90105469 0.02707031 1.80210937 0.05414063 2.73046875 0.08203125 C3.76107422 0.13423828 3.76107422 0.13423828 4.8125 0.1875 C4.8125 1.8375 4.8125 3.4875 4.8125 5.1875 C2.8325 5.1875 0.8525 5.1875 -1.1875 5.1875 C-1.5175 6.5075 -1.8475 7.8275 -2.1875 9.1875 C-0.2075 9.1875 1.7725 9.1875 3.8125 9.1875 C3.8125 10.5075 3.8125 11.8275 3.8125 13.1875 C1.8325 13.1875 -0.1475 13.1875 -2.1875 13.1875 C-2.1875 19.1275 -2.1875 25.0675 -2.1875 31.1875 C-3.8375 31.1875 -5.4875 31.1875 -7.1875 31.1875 C-7.1875 25.2475 -7.1875 19.3075 -7.1875 13.1875 C-8.1775 13.1875 -9.1675 13.1875 -10.1875 13.1875 C-10.1875 11.8675 -10.1875 10.5475 -10.1875 9.1875 C-9.5275 9.1875 -8.8675 9.1875 -8.1875 9.1875 C-8.2803125 7.7953125 -8.2803125 7.7953125 -8.375 6.375 C-8.1875 3.1875 -8.1875 3.1875 -7 1.5 C-4.56175415 -0.26562631 -2.97705493 -0.11598915 0 0 Z " fill="#E8E8E9" transform="translate(733.1875,470.8125)"/>
<path d="M0 0 C2.43841382 1.43996865 3.34723421 2.63890601 5 5 C4.67 5.66 4.34 6.32 4 7 C0.125 5.125 0.125 5.125 -1 4 C-5.11310464 3.5661634 -8.79560836 3.36769439 -12.5 5.3125 C-15.34047458 8.50803391 -15.21673979 11.88303955 -15.15625 16.00390625 C-14.884771 19.47205048 -13.69179013 21.94410981 -11.8125 24.8125 C-8.78866373 26.79363411 -6.50805553 26.48386973 -3 26 C-0.06026719 23.64581624 -0.06026719 23.64581624 2 21 C2.99 21.33 3.98 21.66 5 22 C2.53979371 27.65847447 2.53979371 27.65847447 0.16015625 29.1640625 C-3.59343257 30.61662671 -7.05598437 30.77554593 -11 30 C-14.92500436 27.69160226 -17.55088018 25.34735947 -19 21 C-20.00676527 8.63824289 -20.00676527 8.63824289 -17.1875 4.3125 C-12.14858417 -1.01435388 -6.98981377 -0.97028412 0 0 Z " fill="#D7D7DC" transform="translate(774,589)"/>
<path d="M0 0 C1.32 0 2.64 0 4 0 C4.33 0.66 4.66 1.32 5 2 C5.66 1.34 6.32 0.68 7 0 C13.93572311 -0.67119901 13.93572311 -0.67119901 17.2421875 1.4140625 C19.93134771 5.37011597 19.42904584 9.08792173 19.25 13.75 C19.23195313 14.63816406 19.21390625 15.52632812 19.1953125 16.44140625 C19.14827374 18.62870848 19.08257009 20.81379816 19 23 C17.68 23 16.36 23 15 23 C14.67 16.73 14.34 10.46 14 4 C11.69 4 9.38 4 7 4 C3.97906785 7.02093215 4.53323166 10.56372072 4.375 14.625 C4.33632813 15.42679688 4.29765625 16.22859375 4.2578125 17.0546875 C4.16346069 19.03607556 4.08063785 21.01800645 4 23 C2.68 23 1.36 23 0 23 C0 15.41 0 7.82 0 0 Z " fill="#B3B3C1" transform="translate(702,596)"/>
<path d="M0 0 C2.29387134 1.64376495 2.9212153 2.53733301 3.3984375 5.33984375 C3.39070312 6.19707031 3.38296875 7.05429687 3.375 7.9375 C3.38273438 8.79214844 3.39046875 9.64679687 3.3984375 10.52734375 C2.92034045 13.4943578 2.10470141 14.87105088 0 17 C-3.5 17.5 -3.5 17.5 -7 17 C-9.10470141 14.87105088 -9.92034045 13.4943578 -10.3984375 10.52734375 C-10.39070312 9.67269531 -10.38296875 8.81804688 -10.375 7.9375 C-10.38273438 7.08027344 -10.39046875 6.22304688 -10.3984375 5.33984375 C-9.39022533 -0.58093163 -5.27208156 -0.56486588 0 0 Z " fill="#161647" transform="translate(847,599)"/>
<path d="M0 0 C2.28466127 1.64094608 2.91750603 2.55482983 3.43359375 5.33984375 C3.44403416 12.28271405 3.44403416 12.28271405 1.375 15.625 C-1.71064394 17.41142544 -3.49182714 17.59713581 -7 17 C-9.82616412 14.08073871 -10.41131907 11.95075704 -10.375 7.9375 C-10.38273438 7.08027344 -10.39046875 6.22304688 -10.3984375 5.33984375 C-9.39022533 -0.58093163 -5.27208156 -0.56486588 0 0 Z " fill="#151547" transform="translate(664,599)"/>
<path d="M0 0 C1.65 0 3.3 0 5 0 C5 0.99 5 1.98 5 3 C5.66 3 6.32 3 7 3 C7.33 2.01 7.66 1.02 8 0 C9.98 0 11.96 0 14 0 C13.67 1.65 13.34 3.3 13 5 C11.02 5.66 9.04 6.32 7 7 C6.67 12.28 6.34 17.56 6 23 C4.02 23 2.04 23 0 23 C0 15.41 0 7.82 0 0 Z " fill="#DDDDE0" transform="translate(888,538)"/>
<path d="M0 0 C0.99 0 1.98 0 3 0 C3.06058594 1.20398438 3.12117187 2.40796875 3.18359375 3.6484375 C3.26799732 5.22397077 3.35264541 6.79949096 3.4375 8.375 C3.47681641 9.1690625 3.51613281 9.963125 3.55664062 10.78125 C3.68893404 15.02601221 3.68893404 15.02601221 5 19 C9.00249254 19.35602011 9.00249254 19.35602011 12.65625 18 C14.76203325 14.86581098 14.57559489 11.47339574 14.6875 7.8125 C14.72166016 7.06291016 14.75582031 6.31332031 14.79101562 5.54101562 C14.87334294 3.69453162 14.93835281 1.84729006 15 0 C15.99 0 16.98 0 18 0 C18 7.59 18 15.18 18 23 C17.01 23 16.02 23 15 23 C14.67 22.01 14.34 21.02 14 20 C13.4740625 20.7425 13.4740625 20.7425 12.9375 21.5 C9.9984205 23.77541639 7.60573045 23.32194022 4 23 C1 21 1 21 0 18 C-0.08021999 16.59175107 -0.10765977 15.18002769 -0.09765625 13.76953125 C-0.09282227 12.56586914 -0.09282227 12.56586914 -0.08789062 11.33789062 C-0.07951172 10.50451172 -0.07113281 9.67113281 -0.0625 8.8125 C-0.05798828 7.96751953 -0.05347656 7.12253906 -0.04882812 6.25195312 C-0.03705403 4.16793845 -0.0191189 2.08396023 0 0 Z " fill="#E5E5E6" transform="translate(626,596)"/>
<path d="M0 0 C1.32 0 2.64 0 4 0 C4 1.65 4 3.3 4 5 C6.31 5 8.62 5 11 5 C11 5.99 11 6.98 11 8 C8.69 8 6.38 8 4 8 C4.33 13.28 4.66 18.56 5 24 C6.98 24 8.96 24 11 24 C10.67 25.32 10.34 26.64 10 28 C6.6875 28.25 6.6875 28.25 3 28 C0.12816335 25.49366983 -0.00384266 23.94896941 -0.29296875 20.109375 C-0.27314945 18.65595991 -0.23754845 17.20268833 -0.1875 15.75 C-0.16719727 14.63238281 -0.16719727 14.63238281 -0.14648438 13.4921875 C-0.11127204 11.66114584 -0.05746851 9.83047831 0 8 C-1.32 8 -2.64 8 -4 8 C-4 7.01 -4 6.02 -4 5 C-2.68 5 -1.36 5 0 5 C0 3.35 0 1.7 0 0 Z " fill="#D8D8DD" transform="translate(610,591)"/>
<path d="M0 0 C1.32 0 2.64 0 4 0 C4 1.65 4 3.3 4 5 C6.31 5 8.62 5 11 5 C11 5.99 11 6.98 11 8 C8.69 8 6.38 8 4 8 C4.33 13.28 4.66 18.56 5 24 C6.98 24 8.96 24 11 24 C10.67 25.32 10.34 26.64 10 28 C6.6875 28.25 6.6875 28.25 3 28 C0.12816335 25.49366983 -0.00384266 23.94896941 -0.29296875 20.109375 C-0.27314945 18.65595991 -0.23754845 17.20268833 -0.1875 15.75 C-0.16719727 14.63238281 -0.16719727 14.63238281 -0.14648438 13.4921875 C-0.11127204 11.66114584 -0.05746851 9.83047831 0 8 C-1.32 8 -2.64 8 -4 8 C-4 7.01 -4 6.02 -4 5 C-2.68 5 -1.36 5 0 5 C0 3.35 0 1.7 0 0 Z " fill="#CACAD2" transform="translate(861,591)"/>
<path d="M0 0 C1.32 0 2.64 0 4 0 C4 1.65 4 3.3 4 5 C6.31 5 8.62 5 11 5 C11 5.99 11 6.98 11 8 C8.69 8 6.38 8 4 8 C4.33 13.28 4.66 18.56 5 24 C6.98 24 8.96 24 11 24 C10.67 25.32 10.34 26.64 10 28 C6.6875 28.25 6.6875 28.25 3 28 C0.12816335 25.49366983 -0.00384266 23.94896941 -0.29296875 20.109375 C-0.27314945 18.65595991 -0.23754845 17.20268833 -0.1875 15.75 C-0.16719727 14.63238281 -0.16719727 14.63238281 -0.14648438 13.4921875 C-0.11127204 11.66114584 -0.05746851 9.83047831 0 8 C-1.32 8 -2.64 8 -4 8 C-4 7.01 -4 6.02 -4 5 C-2.68 5 -1.36 5 0 5 C0 3.35 0 1.7 0 0 Z " fill="#C9C9D1" transform="translate(729,591)"/>
<path d="M0 0 C1.65 0 3.3 0 5 0 C5.33 0.66 5.66 1.32 6 2 C6.66 1.34 7.32 0.68 8 0 C10.625 -0.125 10.625 -0.125 13 0 C13 1.65 13 3.3 13 5 C12.030625 5.28875 11.06125 5.5775 10.0625 5.875 C6.89335797 6.64214682 6.89335797 6.64214682 6 9 C5.77049681 11.204364 5.58924067 13.41392173 5.4375 15.625 C5.35371094 16.81351562 5.26992188 18.00203125 5.18359375 19.2265625 C5.12300781 20.14179688 5.06242188 21.05703125 5 22 C3.35 22 1.7 22 0 22 C0 14.74 0 7.48 0 0 Z " fill="#EAEAEA" transform="translate(767,480)"/>
<path d="M0 0 C7.26 0 14.52 0 22 0 C22 0.99 22 1.98 22 3 C19.03 3 16.06 3 13 3 C13 11.58 13 20.16 13 29 C12.01 29 11.02 29 10 29 C10 20.42 10 11.84 10 3 C6.7 3 3.4 3 0 3 C0 2.01 0 1.02 0 0 Z " fill="#F1F1F0" transform="translate(520,589)"/>
<path d="M0 0 C1.98 0 3.96 0 6 0 C6 7.59 6 15.18 6 23 C4.02 23 2.04 23 0 23 C0 15.41 0 7.82 0 0 Z " fill="#D7D7DC" transform="translate(825,538)"/>
<path d="M0 0 C1.98 0 3.96 0 6 0 C6 7.59 6 15.18 6 23 C4.02 23 2.04 23 0 23 C0 15.41 0 7.82 0 0 Z " fill="#D5D5DA" transform="translate(642,538)"/>
<path d="M0 0 C-0.33 0.66 -0.66 1.32 -1 2 C0.32 1.67 1.64 1.34 3 1 C3.125 3.375 3.125 3.375 3 6 C2.34 6.66 1.68 7.32 1 8 C0.35232207 10.57061311 0.35232207 10.57061311 0 13 C-6.34507042 13.35915493 -6.34507042 13.35915493 -8.9375 11.9375 C-10.6140629 8.88023824 -10.36528977 6.4093712 -10 3 C-7.33270753 -0.81041782 -4.29590679 -1.33321245 0 0 Z " fill="#DEDEE1" transform="translate(761,548)"/>
<path d="M0 0 C1 1 1 1 1.11352539 2.94946289 C1.10828857 3.7821167 1.10305176 4.61477051 1.09765625 5.47265625 C1.09443359 6.37177734 1.09121094 7.27089844 1.08789062 8.19726562 C1.07951172 9.14279297 1.07113281 10.08832031 1.0625 11.0625 C1.05798828 12.01189453 1.05347656 12.96128906 1.04882812 13.93945312 C1.0370011 16.29303065 1.02052025 18.64648477 1 21 C-0.65 21 -2.3 21 -4 21 C-4.33 15.39 -4.66 9.78 -5 4 C-7.97 3.505 -7.97 3.505 -11 3 C-10.3125 1.0625 -10.3125 1.0625 -9 -1 C-5.31476029 -2.35771989 -3.28056577 -2.10893514 0 0 Z " fill="#E4E4E6" transform="translate(856,540)"/>
<path d="M0 0 C1.65 0 3.3 0 5 0 C5.33 0.66 5.66 1.32 6 2 C6.66 1.34 7.32 0.68 8 0 C11.125 -0.125 11.125 -0.125 14 0 C12.02 0.99 12.02 0.99 10 2 C10.33 2.66 10.66 3.32 11 4 C10.19175781 4.33644531 9.38351562 4.67289063 8.55078125 5.01953125 C5.62479738 6.84441143 5.62479738 6.84441143 5.29296875 10.57421875 C5.23339267 11.94446863 5.19902518 13.31600403 5.1875 14.6875 C5.16236328 15.38939453 5.13722656 16.09128906 5.11132812 16.81445312 C5.05255552 18.54236781 5.0233903 20.2712443 5 22 C3.35 22 1.7 22 0 22 C0 14.74 0 7.48 0 0 Z " fill="#ECECED" transform="translate(534,538)"/>
<path d="M0 0 C0.99 0 1.98 0 3 0 C3 9.57 3 19.14 3 29 C-2 28 -2 28 -3.80078125 25.78515625 C-4.29964844 24.88667969 -4.79851562 23.98820313 -5.3125 23.0625 C-5.82425781 22.16660156 -6.33601563 21.27070312 -6.86328125 20.34765625 C-8 18 -8 18 -8 16 C-6.68 16 -5.36 16 -4 16 C-3.01 17.65 -2.02 19.3 -1 21 C-0.67 14.07 -0.34 7.14 0 0 Z " fill="#E6E6E8" transform="translate(499,589)"/>
<path d="M0 0 C3.3280815 0.48534522 4.02051935 0.83341713 6 3.4375 C6.34057617 5.5222168 6.34057617 5.5222168 6.29296875 7.88671875 C6.28330078 8.73427734 6.27363281 9.58183594 6.26367188 10.45507812 C6.23853516 11.33615234 6.21339844 12.21722656 6.1875 13.125 C6.17396484 14.01767578 6.16042969 14.91035156 6.14648438 15.83007812 C6.11114079 18.03316166 6.06180493 20.23502582 6 22.4375 C4.35 22.4375 2.7 22.4375 1 22.4375 C0.67 17.1575 0.34 11.8775 0 6.4375 C-1.98 5.7775 -3.96 5.1175 -6 4.4375 C-4.25840822 1.34133684 -3.60277923 0.5254053 0 0 Z " fill="#EDEDED" transform="translate(560,537.5625)"/>
<path d="M0 0 C2.375 0.875 2.375 0.875 4.375 2.875 C4.71055022 6.49894236 4.79578956 9.01127406 3.1875 12.3125 C1.375 13.875 1.375 13.875 -1.125 14.375 C-3.625 13.875 -3.625 13.875 -5.4375 12.25 C-6.97878195 9.1674361 -7.12193476 7.28255267 -6.625 3.875 C-4.55425273 0.88392061 -3.70318945 -0.17634235 0 0 Z " fill="#1D1D4C" transform="translate(751.625,484.125)"/>
<path d="M0 0 C2.875 0.3125 2.875 0.3125 6 1 C8.32579101 4.48868651 8.41865457 5.89718519 8 10 C6.8125 12.375 6.8125 12.375 5 14 C2.5 14.5 2.5 14.5 0 14 C-2.50907308 11.75048621 -2.95656309 10.34749528 -3.375 7 C-2.96644557 3.73156457 -2.20409407 2.38776858 0 0 Z " fill="#1C1C4C" transform="translate(556,484)"/>
<path d="M0 0 C2.375 0.9375 2.375 0.9375 4.375 3.9375 C4.72989252 7.27348971 4.69603306 9.29543388 3.1875 12.3125 C1.375 13.9375 1.375 13.9375 -1.125 14.4375 C-3.625 13.9375 -3.625 13.9375 -5.4375 12.3125 C-6.97878195 9.2299361 -7.12193476 7.34505267 -6.625 3.9375 C-4.56007881 0.95483606 -3.68798539 -0.08780918 0 0 Z " fill="#1B1B4B" transform="translate(673.625,484.0625)"/>
<path d="M0 0 C0.66 0 1.32 0 2 0 C2 0.66 2 1.32 2 2 C2.90363281 1.9278125 3.80726563 1.855625 4.73828125 1.78125 C6.50751953 1.64203125 6.50751953 1.64203125 8.3125 1.5 C9.48425781 1.4071875 10.65601563 1.314375 11.86328125 1.21875 C13.905194 1.07635011 15.9531279 1 18 1 C18 1.99 18 2.98 18 4 C12.72 4 7.44 4 2 4 C2.66 6.31 3.32 8.62 4 11 C8.92127034 11.16682272 12.50343896 11.24828052 17 9 C16.6875 10.875 16.6875 10.875 16 13 C11.96514506 15.68990329 8.73771348 15.77993882 4 15 C0.9375 13.0625 0.9375 13.0625 -1 10 C-1.44089967 6.94482463 -1.44192627 4.05560449 -1 1 C-0.67 0.67 -0.34 0.34 0 0 Z " fill="#E6E6E8" transform="translate(877,604)"/>
<path d="M0 0 C1.32 0 2.64 0 4 0 C4 9.9 4 19.8 4 30 C2.68 30 1.36 30 0 30 C0 20.1 0 10.2 0 0 Z " fill="#D5D5DA" transform="translate(511,589)"/>
<path d="M0 0 C2.4375 0.8125 2.4375 0.8125 4.4375 2.8125 C4.90126812 10.11684783 4.90126812 10.11684783 2.4375 13.8125 C-0.5625 14.1875 -0.5625 14.1875 -3.5625 13.8125 C-6.09936376 10.00720436 -6.15605135 7.27340938 -5.5625 2.8125 C-3.92391781 -0.03345855 -3.27337134 -0.23951498 0 0 Z " fill="#1D1D4C" transform="translate(583.5625,542.1875)"/>
<path d="M0 0 C1.65 0 3.3 0 5 0 C5.33 0.66 5.66 1.32 6 2 C6.66 1.67 7.32 1.34 8 1 C7.690625 1.86625 7.38125 2.7325 7.0625 3.625 C5.32696438 9.57013265 5.32405969 15.85139382 5 22 C3.35 22 1.7 22 0 22 C0 14.74 0 7.48 0 0 Z " fill="#EBEBEB" transform="translate(689,480)"/>
<path d="M0 0 C3.4375 0.1875 3.4375 0.1875 4.4375 1.1875 C4.5620486 2.82980364 4.61318524 4.47802276 4.625 6.125 C4.63917969 7.02089844 4.65335938 7.91679688 4.66796875 8.83984375 C4.4375 11.1875 4.4375 11.1875 2.4375 13.1875 C-0.6875 13.3125 -0.6875 13.3125 -3.5625 13.1875 C-5.88867985 9.55284398 -5.87654687 6.42713281 -5.5625 2.1875 C-3.5625 0.1875 -3.5625 0.1875 0 0 Z " fill="#1A1A4A" transform="translate(517.5625,542.8125)"/>
<path d="M0 0 C0.66 0 1.32 0 2 0 C2 0.99 2 1.98 2 3 C2.66 3 3.32 3 4 3 C3.96519531 4.24716797 3.96519531 4.24716797 3.9296875 5.51953125 C3.91164063 6.60621094 3.89359375 7.69289063 3.875 8.8125 C3.85179687 9.89144531 3.82859375 10.97039063 3.8046875 12.08203125 C3.76976283 15.19402868 3.76976283 15.19402868 6 18 C9.56769552 18.73606499 9.56769552 18.73606499 13 19 C12.67 19.66 12.34 20.32 12 21 C9.66705225 21.04241723 7.33297433 21.04092937 5 21 C4.67 20.67 4.34 20.34 4 20 C3.67 23.3 3.34 26.6 3 30 C2.01 30 1.02 30 0 30 C0 20.1 0 10.2 0 0 Z " fill="#DFDFE2" transform="translate(834,597)"/>
<path d="M0 0 C1.65 0 3.3 0 5 0 C5 7.26 5 14.52 5 22 C3.35 22 1.7 22 0 22 C0 14.74 0 7.48 0 0 Z " fill="#EEEEEE" transform="translate(651,480)"/>
<path d="M0 0 C1.65 0 3.3 0 5 0 C5 7.26 5 14.52 5 22 C3.35 22 1.7 22 0 22 C0 14.74 0 7.48 0 0 Z " fill="#ECECEC" transform="translate(598,480)"/>
<path d="M0 0 C2.6875 2 2.6875 2 4 4 C3.01 4.33 2.02 4.66 1 5 C0.34 4.67 -0.32 4.34 -1 4 C-2.54023996 3.93049459 -4.08334988 3.91547643 -5.625 3.9375 C-6.44226563 3.94652344 -7.25953125 3.95554687 -8.1015625 3.96484375 C-8.72804688 3.97644531 -9.35453125 3.98804688 -10 4 C-10.67958603 6.39719432 -10.67958603 6.39719432 -11 9 C-8.77810176 11.22189824 -6.91517292 11.92598892 -4 13 C-4 13.66 -4 14.32 -4 15 C-7.25 15.3125 -7.25 15.3125 -11 15 C-13.96135546 12.41830549 -14.86756104 10.81118865 -15.5 6.9375 C-15 4 -15 4 -13.6875 1.625 C-9.36933511 -0.98598342 -4.90818196 -0.7745841 0 0 Z " fill="#DDDDE0" transform="translate(598,589)"/>
<path d="M0 0 C0.99 0 1.98 0 3 0 C3.33 0.66 3.66 1.32 4 2 C4.66 1.34 5.32 0.68 6 0 C9.125 -0.125 9.125 -0.125 12 0 C12 0.99 12 1.98 12 3 C10.2984375 3.433125 10.2984375 3.433125 8.5625 3.875 C7.386875 4.24625 6.21125 4.6175 5 5 C3.47893366 8.04213267 3.62570662 11.28047572 3.4375 14.625 C3.39431641 15.33140625 3.35113281 16.0378125 3.30664062 16.765625 C3.20055249 18.51018537 3.09977111 20.25506697 3 22 C2.01 22 1.02 22 0 22 C0 14.74 0 7.48 0 0 Z " fill="#E4E4E6" transform="translate(901,596)"/>
<path d="M0 0 C0.99 0 1.98 0 3 0 C3.06058594 1.20398438 3.12117187 2.40796875 3.18359375 3.6484375 C3.26799732 5.22397077 3.35264541 6.79949096 3.4375 8.375 C3.47681641 9.1690625 3.51613281 9.963125 3.55664062 10.78125 C3.68893404 15.02601221 3.68893404 15.02601221 5 19 C7.52733235 19.65555119 7.52733235 19.65555119 10 20 C10.33 20.99 10.66 21.98 11 23 C4.375 23.25 4.375 23.25 1 21 C0.07811539 18.23434618 -0.11785222 16.61716298 -0.09765625 13.76953125 C-0.09282227 12.56586914 -0.09282227 12.56586914 -0.08789062 11.33789062 C-0.07951172 10.50451172 -0.07113281 9.67113281 -0.0625 8.8125 C-0.05798828 7.96751953 -0.05347656 7.12253906 -0.04882812 6.25195312 C-0.03705403 4.16793845 -0.0191189 2.08396023 0 0 Z " fill="#DDDDE1" transform="translate(626,596)"/>
<path d="M0 0 C0.66 0 1.32 0 2 0 C2 9.9 2 19.8 2 30 C1.34 30 0.68 30 0 30 C0 29.01 0 28.02 0 27 C-0.99 27.33 -1.98 27.66 -3 28 C-2.83628906 27.46890625 -2.67257812 26.9378125 -2.50390625 26.390625 C-1.88643623 23.46123236 -1.90498075 20.74177064 -1.9375 17.75 C-1.94652344 16.67234375 -1.95554687 15.5946875 -1.96484375 14.484375 C-1.97644531 13.66453125 -1.98804688 12.8446875 -2 12 C-1.34 12 -0.68 12 0 12 C0 8.04 0 4.08 0 0 Z " fill="#E1E1E4" transform="translate(668,588)"/>
<path d="M0 0 C0.125 3.375 0.125 3.375 0 7 C-2 9 -2 9 -5.5625 9.1875 C-9 9 -9 9 -10 8 C-10.25 5.0625 -10.25 5.0625 -10 2 C-6.3558226 -0.4294516 -4.28758728 -0.16179575 0 0 Z " fill="#1D1D4C" transform="translate(227,546)"/>
<path d="M0 0 C0.86625 0.3403125 0.86625 0.3403125 1.75 0.6875 C1.42 2.9975 1.09 5.3075 0.75 7.6875 C2.07 8.3475 3.39 9.0075 4.75 9.6875 C4.42 10.6775 4.09 11.6675 3.75 12.6875 C-2.68014706 12.20220588 -2.68014706 12.20220588 -5.1875 9.9375 C-6.47373329 7.21371186 -6.78362521 5.66055472 -6.25 2.6875 C-4.11319077 0.39806154 -3.15626895 -0.43837069 0 0 Z " fill="#DFDFE2" transform="translate(614.25,490.3125)"/>
<path d="M0 0 C0.66 0 1.32 0 2 0 C2 3.96 2 7.92 2 12 C2.66 12 3.32 12 4 12 C3.67 17.94 3.34 23.88 3 30 C2.01 30 1.02 30 0 30 C0 20.1 0 10.2 0 0 Z " fill="#EBEBEC" transform="translate(785,588)"/>
<path d="M0 0 C0.99 0 1.98 0 3 0 C3 3.96 3 7.92 3 12 C3.66 12.33 4.32 12.66 5 13 C4.34 13.66 3.68 14.32 3 15 C2.69940057 17.36509361 2.50484988 19.74441881 2.375 22.125 C2.30023437 23.40632812 2.22546875 24.68765625 2.1484375 26.0078125 C2.09945312 26.99523437 2.05046875 27.98265625 2 29 C1.34 29 0.68 29 0 29 C0 19.43 0 9.86 0 0 Z " fill="#DEDEE1" transform="translate(549,589)"/>
<path d="M0 0 C0.125 3.375 0.125 3.375 0 7 C-2 9 -2 9 -5.5625 9.1875 C-9 9 -9 9 -10 8 C-10.25 5.5625 -10.25 5.5625 -10 3 C-6.75540897 0.83693931 -3.93614833 0 0 0 Z " fill="#1D1D4C" transform="translate(822,607)"/>
<path d="M0 0 C0.28875 0.598125 0.5775 1.19625 0.875 1.8125 C2.04742026 4.19327792 2.04742026 4.19327792 4 7 C7.5 7.41666667 7.5 7.41666667 11 7 C11.66 6.34 12.32 5.68 13 5 C13.99 5 14.98 5 16 5 C15.67012361 7.47407292 15.42027913 8.6637767 13.4375 10.25 C9.90832832 11.33589898 6.61568565 11.70741676 3 11 C-0.0625 8.75 -0.0625 8.75 -2 6 C-1.85817944 3.51814024 -1.10376548 2.20753096 0 0 Z " fill="#D9D9DD" transform="translate(680,608)"/>
<path d="M0 0 C7.26 0 14.52 0 22 0 C22 0.99 22 1.98 22 3 C14.48751716 3.94450945 7.51248284 3.94450945 0 3 C0 2.01 0 1.02 0 0 Z " fill="#DBDBDF" transform="translate(520,589)"/>
<path d="M0 0 C3.5 0.25 3.5 0.25 5.5 2.25 C5.5 3.57 5.5 4.89 5.5 6.25 C1.54 6.25 -2.42 6.25 -6.5 6.25 C-5.02727273 0.35909091 -5.02727273 0.35909091 0 0 Z " fill="#141445" transform="translate(687.5,598.75)"/>
<path d="M0 0 C0 0.66 0 1.32 0 2 C-1.65 2.66 -3.3 3.32 -5 4 C-5 5.65 -5 7.3 -5 9 C-3.02 9.66 -1.04 10.32 1 11 C1 11.66 1 12.32 1 13 C-5.34507042 13.35915493 -5.34507042 13.35915493 -7.9375 11.9375 C-9.6140629 8.88023824 -9.36528977 6.4093712 -9 3 C-6.82246161 -0.75020501 -4.02857537 -0.26857169 0 0 Z " fill="#DADADF" transform="translate(818,606)"/>
<path d="M0 0 C3.5625 0.1875 3.5625 0.1875 5.5625 2.1875 C5.5625 3.5075 5.5625 4.8275 5.5625 6.1875 C1.9325 6.1875 -1.6975 6.1875 -5.4375 6.1875 C-4.24632353 0.23161765 -4.24632353 0.23161765 0 0 Z " fill="#101043" transform="translate(885.4375,598.8125)"/>
<path d="M0 0 C2 0.6875 2 0.6875 4 2.6875 C2.576875 3.05875 2.576875 3.05875 1.125 3.4375 C-2.44117911 4.46258516 -2.44117911 4.46258516 -4 8.6875 C-0.04 8.6875 3.92 8.6875 8 8.6875 C8 9.0175 8 9.3475 8 9.6875 C3.71 9.6875 -0.58 9.6875 -5 9.6875 C-5.33 9.0275 -5.66 8.3675 -6 7.6875 C-6.33 9.9975 -6.66 12.3075 -7 14.6875 C-7.33 14.6875 -7.66 14.6875 -8 14.6875 C-8.42004622 8.59682974 -8.0566405 5.57933119 -4 0.6875 C-2 -0.3125 -2 -0.3125 0 0 Z " fill="#B8B8C4" transform="translate(685,596.3125)"/>
<path d="M0 0 C0 0.66 0 1.32 0 2 C4.92127034 2.16682272 8.50343896 2.24828052 13 0 C12.6875 1.875 12.6875 1.875 12 4 C8.02572757 6.64951495 4.67723947 6.86959506 0 6 C-2.5625 3.5 -2.5625 3.5 -4 1 C-2 0 -2 0 0 0 Z " fill="#DEDEE2" transform="translate(881,613)"/>
<path d="M0 0 C3.53790403 3.69172595 3.59115883 7.09390595 4 12 C1.69 12 -0.62 12 -3 12 C-2.68950274 10.56206608 -2.3765224 9.1246682 -2.0625 7.6875 C-1.88847656 6.88699219 -1.71445312 6.08648437 -1.53515625 5.26171875 C-1 3 -1 3 0 0 Z " fill="#252553" transform="translate(489,479)"/>
<path d="M0 0 C0.33 0 0.66 0 1 0 C1.33 5.28 1.66 10.56 2 16 C3.98 16 5.96 16 8 16 C7.67 17.32 7.34 18.64 7 20 C4.69 20 2.38 20 0 20 C-0.66 18.68 -1.32 17.36 -2 16 C-1.67 15.67 -1.34 15.34 -1 15 C-0.76346477 12.47403741 -0.57826308 9.96892793 -0.4375 7.4375 C-0.39431641 6.72658203 -0.35113281 6.01566406 -0.30664062 5.28320312 C-0.20028223 3.52238088 -0.09961154 1.7612168 0 0 Z " fill="#C4C4CD" transform="translate(613,599)"/>
<path d="M0 0 C0.66 0 1.32 0 2 0 C2 6.27 2 12.54 2 19 C1.34 18.67 0.68 18.34 0 18 C-0.40729228 15.67843403 -0.74438677 13.3431213 -1 11 C-1.66 11 -2.32 11 -3 11 C-2.01 7.37 -1.02 3.74 0 0 Z " fill="#404067" transform="translate(738,541)"/>
<path d="M0 0 C0.66 0 1.32 0 2 0 C2 0.99 2 1.98 2 3 C2.66 3 3.32 3 4 3 C3.84660156 3.51046875 3.69320312 4.0209375 3.53515625 4.546875 C2.83094597 7.7749338 2.65111796 10.95418001 2.4375 14.25 C2.35371094 15.51328125 2.26992188 16.7765625 2.18359375 18.078125 C2.12300781 19.04234375 2.06242188 20.0065625 2 21 C1.34 21 0.68 21 0 21 C0 14.07 0 7.14 0 0 Z " fill="#F0F0EF" transform="translate(703,597)"/>
<path d="M0 0 C3.3 0 6.6 0 10 0 C10 1.32 10 2.64 10 4 C7.26094655 5.36952673 5.02912668 5.12621361 2 5 C1.34 4.67 0.68 4.34 0 4 C0 2.68 0 1.36 0 0 Z " fill="#1E1E4D" transform="translate(684,561)"/>
<path d="M0 0 C6.75 1.625 6.75 1.625 9 5 C9.07905064 7.33199388 9.08798769 9.66832622 9 12 C8.34 10.68 7.68 9.36 7 8 C6.01 9.485 6.01 9.485 5 11 C5 9.02 5 7.04 5 5 C2.69 4.34 0.38 3.68 -2 3 C-1.34 2.67 -0.68 2.34 0 2 C0 1.34 0 0.68 0 0 Z " fill="#CECED5" transform="translate(594,602)"/>
<path d="M0 0 C1.9375 0.625 1.9375 0.625 4 2 C4.75 5.125 4.75 5.125 5 8 C1.57767028 9.14077657 -1.08673217 9.09815117 -4.6875 9.0625 C-6.45673828 9.04896484 -6.45673828 9.04896484 -8.26171875 9.03515625 C-9.16535156 9.02355469 -10.06898438 9.01195312 -11 9 C-10.67 8.01 -10.34 7.02 -10 6 C-10 6.66 -10 7.32 -10 8 C-6.37 8 -2.74 8 1 8 C0.649375 7.05125 0.29875 6.1025 -0.0625 5.125 C-1 2 -1 2 0 0 Z " fill="#B2B2C0" transform="translate(890,597)"/>
<path d="M0 0 C0.99 0.33 1.98 0.66 3 1 C0.54716981 6.64150943 0.54716981 6.64150943 -1.8125 8.1875 C-4.28180208 9.10466934 -6.12568459 9.20218575 -8.75 9.125 C-9.54921875 9.10695313 -10.3484375 9.08890625 -11.171875 9.0703125 C-11.77515625 9.04710937 -12.3784375 9.02390625 -13 9 C-13 8.67 -13 8.34 -13 8 C-11.948125 7.773125 -10.89625 7.54625 -9.8125 7.3125 C-5.83172145 6.19820499 -3.71771064 4.11737397 -1 1 C-0.67 0.67 -0.34 0.34 0 0 Z " fill="#D1D1D7" transform="translate(776,610)"/>
<path d="M0 0 C1.2065625 0.0309375 1.2065625 0.0309375 2.4375 0.0625 C3.0625 2.4375 3.0625 2.4375 3.4375 5.0625 C2.7775 5.7225 2.1175 6.3825 1.4375 7.0625 C-1.1875 6.6875 -1.1875 6.6875 -3.5625 6.0625 C-3.605221 4.39638095 -3.60313832 2.72867115 -3.5625 1.0625 C-2.5625 0.0625 -2.5625 0.0625 0 0 Z " fill="#212150" transform="translate(689.5625,541.9375)"/>
<path d="M0 0 C0.23053497 2.84326464 0.35903101 4.46145349 -1.25 6.875 C-3 8 -3 8 -5.1875 7.6875 C-5.785625 7.460625 -6.38375 7.23375 -7 7 C-7.33 5.68 -7.66 4.36 -8 3 C-1.125 0 -1.125 0 0 0 Z " fill="#242452" transform="translate(764,549)"/>
<path d="M0 0 C0.33 1.32 0.66 2.64 1 4 C-1.97 4.66 -4.94 5.32 -8 6 C-8.66 5.01 -9.32 4.02 -10 3 C-6.48812804 0.59185923 -4.27343092 -0.36629408 0 0 Z " fill="#242451" transform="translate(763,542)"/>
<path d="M0 0 C1.2065625 0.0309375 1.2065625 0.0309375 2.4375 0.0625 C3.0975 1.7125 3.7575 3.3625 4.4375 5.0625 C1.1375 5.0625 -2.1625 5.0625 -5.5625 5.0625 C-3.06867284 0.07484568 -3.06867284 0.07484568 0 0 Z " fill="#2C2C57" transform="translate(873.5625,541.9375)"/>
<path d="M0 0 C1.21236328 0.02707031 1.21236328 0.02707031 2.44921875 0.0546875 C3.37154297 0.08949219 3.37154297 0.08949219 4.3125 0.125 C3.9825 1.115 3.6525 2.105 3.3125 3.125 C2.24 3.24875 1.1675 3.3725 0.0625 3.5 C-3.06613615 4.02143936 -5.02230424 4.52588254 -7.6875 6.125 C-7.6875 4.805 -7.6875 3.485 -7.6875 2.125 C-4.48369983 -0.01086678 -3.66810033 -0.10632175 0 0 Z " fill="#DBDBDF" transform="translate(817.6875,595.875)"/>
<path d="M0 0 C1.62580966 0.11398665 3.25067157 0.24155659 4.875 0.375 C5.77992188 0.44460938 6.68484375 0.51421875 7.6171875 0.5859375 C10 1 10 1 12 3 C8.53076119 5.31282587 7.07794425 5.42478586 3 5 C1.125 3.625 1.125 3.625 0 2 C0 1.34 0 0.68 0 0 Z " fill="#222250" transform="translate(868,551)"/>
<path d="M0 0 C1.2065625 0.0309375 1.2065625 0.0309375 2.4375 0.0625 C2.81968767 1.71864657 3.15145102 3.38707024 3.4375 5.0625 C2.4375 6.0625 2.4375 6.0625 -0.125 6.125 C-1.3315625 6.0940625 -1.3315625 6.0940625 -2.5625 6.0625 C-2.94468767 4.40635343 -3.27645102 2.73792976 -3.5625 1.0625 C-2.5625 0.0625 -2.5625 0.0625 0 0 Z " fill="#D6D6DB" transform="translate(645.5625,528.9375)"/>
<path d="M0 0 C1.2065625 0.0309375 1.2065625 0.0309375 2.4375 0.0625 C2.480221 1.72861905 2.47813832 3.39632885 2.4375 5.0625 C1.4375 6.0625 1.4375 6.0625 -1.625 6.125 C-3.0790625 6.0940625 -3.0790625 6.0940625 -4.5625 6.0625 C-3.48963568 0.08511307 -3.48963568 0.08511307 0 0 Z " fill="#1F1F4E" transform="translate(618.5625,491.9375)"/>
<path d="M0 0 C1.2065625 0.0309375 1.2065625 0.0309375 2.4375 0.0625 C2.81968767 1.71864657 3.15145102 3.38707024 3.4375 5.0625 C2.4375 6.0625 2.4375 6.0625 -0.125 6.125 C-1.3315625 6.0940625 -1.3315625 6.0940625 -2.5625 6.0625 C-2.94468767 4.40635343 -3.27645102 2.73792976 -3.5625 1.0625 C-2.5625 0.0625 -2.5625 0.0625 0 0 Z " fill="#D5D5DB" transform="translate(600.5625,470.9375)"/>
<path d="M0 0 C1.2065625 0.0309375 1.2065625 0.0309375 2.4375 0.0625 C2.81968767 1.71864657 3.15145102 3.38707024 3.4375 5.0625 C2.4375 6.0625 2.4375 6.0625 -0.125 6.125 C-1.3315625 6.0940625 -1.3315625 6.0940625 -2.5625 6.0625 C-2.94468767 4.40635343 -3.27645102 2.73792976 -3.5625 1.0625 C-2.5625 0.0625 -2.5625 0.0625 0 0 Z " fill="#D5D5DB" transform="translate(653.5625,470.9375)"/>
<path d="M0 0 C0.33 0 0.66 0 1 0 C1.1875 3.375 1.1875 3.375 1 7 C-2.6441774 9.4294516 -4.71241272 9.16179575 -9 9 C-9.33 8.34 -9.66 7.68 -10 7 C-8.906875 6.773125 -7.81375 6.54625 -6.6875 6.3125 C-2.87265531 5.35055561 -2.87265531 5.35055561 -1.125 2.375 C-0.75375 1.59125 -0.3825 0.8075 0 0 Z " fill="#E3E3E5" transform="translate(601,609)"/>
<path d="M0 0 C0.66 0 1.32 0 2 0 C2 4.95 2 9.9 2 15 C1.01 15.33 0.02 15.66 -1 16 C-1.33 14.68 -1.66 13.36 -2 12 C-1.34 12 -0.68 12 0 12 C0 8.04 0 4.08 0 0 Z " fill="#F1F1F0" transform="translate(668,588)"/>
<path d="M0 0 C2.375 2 2.375 2 4 4 C0.61725734 5.12758089 -0.76778223 4.81750262 -4.1875 4.0625 C-5.08855469 3.86785156 -5.98960937 3.67320312 -6.91796875 3.47265625 C-7.60503906 3.31667969 -8.29210937 3.16070313 -9 3 C-9 2.34 -9 1.68 -9 1 C-5.68377419 -0.1054086 -3.47482175 -0.35457365 0 0 Z " fill="#D7D7DC" transform="translate(598,589)"/>
<path d="M0 0 C0.66 0 1.32 0 2 0 C2 0.99 2 1.98 2 3 C2.66 3 3.32 3 4 3 C3.01 6.96 2.02 10.92 1 15 C0.67 15 0.34 15 0 15 C0 10.05 0 5.1 0 0 Z " fill="#EDEDED" transform="translate(834,597)"/>
<path d="M0 0 C1.32 0 2.64 0 4 0 C4.25 2.3125 4.25 2.3125 4 5 C2.25 6.8125 2.25 6.8125 0 8 C-1.32 8 -2.64 8 -4 8 C-4 7.01 -4 6.02 -4 5 C-2.68 5 -1.36 5 0 5 C0 3.35 0 1.7 0 0 Z " fill="#C4C4CD" transform="translate(610,591)"/>
<path d="M0 0 C2.40072955 2.88087546 4.47291037 5.56404834 6 9 C4.68 9.33 3.36 9.66 2 10 C-2 3.25 -2 3.25 -2 1 C-1.34 0.67 -0.68 0.34 0 0 Z " fill="#D8D8DD" transform="translate(488,596)"/>
<path d="M0 0 C5.53846154 0.61538462 5.53846154 0.61538462 7.875 2.5625 C8.431875 3.2740625 8.431875 3.2740625 9 4 C8.34 5.98 7.68 7.96 7 10 C6.67 10 6.34 10 6 10 C5.773125 9.05125 5.54625 8.1025 5.3125 7.125 C4.30916286 3.80676612 4.30916286 3.80676612 1.375 2.625 C0.59125 2.41875 -0.1925 2.2125 -1 2 C-0.67 1.34 -0.34 0.68 0 0 Z " fill="#DFDFE2" transform="translate(687,596)"/>
<path d="M0 0 C1.65 0.33 3.3 0.66 5 1 C4.67 2.65 4.34 4.3 4 6 C2.35 5.67 0.7 5.34 -1 5 C-0.67 3.35 -0.34 1.7 0 0 Z " fill="#E8E8E9" transform="translate(826,529)"/>
<path d="M0 0 C0.99 0 1.98 0 3 0 C3.33 3.63 3.66 7.26 4 11 C5.32 10.34 6.64 9.68 8 9 C8.99 9.99 9.98 10.98 11 12 C4.25 14.125 4.25 14.125 2 13 C2 9.04 2 5.08 2 1 C1.34 0.67 0.68 0.34 0 0 Z " fill="#C3C3CD" transform="translate(785,587)"/>
<path d="M0 0 C-0.99 0.33 -1.98 0.66 -3 1 C-4.12516085 2.83284443 -4.12516085 2.83284443 -5 5 C-5.66666667 6.33333333 -6.33333333 7.66666667 -7 9 C-7.66 8.67 -8.32 8.34 -9 8 C-8.64005447 5.3364031 -8.28838998 3.41816548 -6.75 1.1875 C-4.41988723 -0.39364795 -2.75498245 -0.22337696 0 0 Z " fill="#E7E7E8" transform="translate(592,589)"/>
<path d="M0 0 C0.99 0 1.98 0 3 0 C2.67012361 2.47407292 2.42027913 3.6637767 0.4375 5.25 C-3.10914618 6.34127575 -6.29528399 6.12349053 -10 6 C-10 5.67 -10 5.34 -10 5 C-8.906875 4.9175 -7.81375 4.835 -6.6875 4.75 C-2.96399307 4.38836869 -2.96399307 4.38836869 -1.25 1.9375 C-0.8375 1.298125 -0.425 0.65875 0 0 Z " fill="#C3C3CD" transform="translate(693,613)"/>
<path d="M0 0 C0.33 0 0.66 0 1 0 C1 3.63 1 7.26 1 11 C0.01 10.67 -0.98 10.34 -2 10 C-2.1953125 3.9453125 -2.1953125 3.9453125 -2 2 C-1.34 1.34 -0.68 0.68 0 0 Z " fill="#F1F1F0" transform="translate(757,597)"/>
<path d="M0 0 C0.66 0 1.32 0 2 0 C1.6875 1.875 1.6875 1.875 1 4 C-2.20380017 6.13586678 -3.01939967 6.23132175 -6.6875 6.125 C-7.89986328 6.09792969 -7.89986328 6.09792969 -9.13671875 6.0703125 C-10.05904297 6.03550781 -10.05904297 6.03550781 -11 6 C-11 5.67 -11 5.34 -11 5 C-9.39125 4.87625 -9.39125 4.87625 -7.75 4.75 C-3.66499825 3.93299965 -2.65108323 3.0438363 0 0 Z " fill="#CACAD2" transform="translate(892,613)"/>
<path d="M0 0 C2.05078125 0.03255208 4.1015625 0.06510417 6.15234375 0.09765625 C3.32680391 4.33596601 1.03053487 4.07480973 -3.84765625 5.09765625 C-2.72914438 0.14424653 -2.72914438 0.14424653 0 0 Z " fill="#D3D3D9" transform="translate(710.84765625,595.90234375)"/>
<path d="M0 0 C1.9451 2.91765 2.45276317 4.62537285 3 8 C2.34 8 1.68 8 1 8 C1 11.63 1 15.26 1 19 C0.67 19 0.34 19 0 19 C0 12.73 0 6.46 0 0 Z " fill="#2C2C57" transform="translate(720,541)"/>
<path d="M0 0 C0.99 0 1.98 0 3 0 C3.33 0.66 3.66 1.32 4 2 C4.99 1.34 5.98 0.68 7 0 C9.1875 0.375 9.1875 0.375 11 1 C11 1.66 11 2.32 11 3 C4.25 5.125 4.25 5.125 2 4 C2 3.01 2 2.02 2 1 C1.34 0.67 0.68 0.34 0 0 Z " fill="#CECED5" transform="translate(834,596)"/>
<path d="M0 0 C4.455 0.99 4.455 0.99 9 2 C8.67 2.66 8.34 3.32 8 4 C5.36 4 2.72 4 0 4 C0 2.68 0 1.36 0 0 Z " fill="#E0E0E3" transform="translate(761,614)"/>
<path d="M0 0 C0.66 0.33 1.32 0.66 2 1 C0.9024777 3.99324263 0.32317108 4.84610901 -2.625 6.25 C-3.40875 6.4975 -4.1925 6.745 -5 7 C-3.75023244 3.34683329 -3.32901247 2.21934164 0 0 Z " fill="#D2D2D8" transform="translate(656,596)"/>
<path d="M0 0 C2.50298434 2.93828597 3.46930939 5.17902761 4 9 C3.34 8.67 2.68 8.34 2 8 C2 7.34 2 6.68 2 6 C0.02 6.99 0.02 6.99 -2 8 C-1.47731534 5.23723823 -0.89130413 2.6739124 0 0 Z " fill="#31315B" transform="translate(489,479)"/>
<path d="M0 0 C0 0.66 0 1.32 0 2 C-3.375 2.1875 -3.375 2.1875 -7 2 C-7.66 1.01 -8.32 0.02 -9 -1 C-5.79937313 -2.60031344 -3.27728194 -1.03173691 0 0 Z " fill="#D6D6DB" transform="translate(819,617)"/>
<path d="M0 0 C0.33 0 0.66 0 1 0 C1 2.31 1 4.62 1 7 C0.01 7 -0.98 7 -2 7 C-2.125 4.625 -2.125 4.625 -2 2 C-1.34 1.34 -0.68 0.68 0 0 Z " fill="#EBEBEB" transform="translate(811,609)"/>
<path d="M0 0 C0.66 0.33 1.32 0.66 2 1 C0.625 3.5 0.625 3.5 -1 6 C-1.66 6 -2.32 6 -3 6 C-3 4.68 -3 3.36 -3 2 C-2.01 1.34 -1.02 0.68 0 0 Z " fill="#C4C4CD" transform="translate(813,596)"/>
</svg>
